<svg width="139" height="14" viewBox="0 0 139 14" fill="none" xmlns="http://www.w3.org/2000/svg">
<path d="M7.60798 13.216C6.32398 13.216 5.15998 12.94 4.11598 12.388C3.08398 11.824 2.26798 11.05 1.66798 10.066C1.07998 9.07 0.785984 7.948 0.785984 6.7C0.785984 5.452 1.07998 4.336 1.66798 3.352C2.26798 2.356 3.08398 1.582 4.11598 1.03C5.15998 0.466 6.32998 0.184 7.62598 0.184C8.71799 0.184 9.70199 0.376 10.578 0.76C11.466 1.144 12.21 1.696 12.81 2.416L10.938 4.144C10.086 3.16 9.02998 2.668 7.76998 2.668C6.98998 2.668 6.29398 2.842 5.68198 3.19C5.06998 3.526 4.58998 4 4.24198 4.612C3.90598 5.224 3.73798 5.92 3.73798 6.7C3.73798 7.48 3.90598 8.176 4.24198 8.788C4.58998 9.4 5.06998 9.88 5.68198 10.228C6.29398 10.564 6.98998 10.732 7.76998 10.732C9.02998 10.732 10.086 10.234 10.938 9.238L12.81 10.966C12.21 11.698 11.466 12.256 10.578 12.64C9.68998 13.024 8.69998 13.216 7.60798 13.216ZM20.6175 13.216C19.3095 13.216 18.1275 12.934 17.0715 12.37C16.0275 11.806 15.2055 11.032 14.6055 10.048C14.0175 9.052 13.7235 7.936 13.7235 6.7C13.7235 5.464 14.0175 4.354 14.6055 3.37C15.2055 2.374 16.0275 1.594 17.0715 1.03C18.1275 0.466 19.3095 0.184 20.6175 0.184C21.9255 0.184 23.1015 0.466 24.1455 1.03C25.1895 1.594 26.0115 2.374 26.6115 3.37C27.2115 4.354 27.5115 5.464 27.5115 6.7C27.5115 7.936 27.2115 9.052 26.6115 10.048C26.0115 11.032 25.1895 11.806 24.1455 12.37C23.1015 12.934 21.9255 13.216 20.6175 13.216ZM20.6175 10.732C21.3615 10.732 22.0335 10.564 22.6335 10.228C23.2335 9.88 23.7015 9.4 24.0375 8.788C24.3855 8.176 24.5595 7.48 24.5595 6.7C24.5595 5.92 24.3855 5.224 24.0375 4.612C23.7015 4 23.2335 3.526 22.6335 3.19C22.0335 2.842 21.3615 2.668 20.6175 2.668C19.8735 2.668 19.2015 2.842 18.6015 3.19C18.0015 3.526 17.5275 4 17.1795 4.612C16.8435 5.224 16.6755 5.92 16.6755 6.7C16.6755 7.48 16.8435 8.176 17.1795 8.788C17.5275 9.4 18.0015 9.88 18.6015 10.228C19.2015 10.564 19.8735 10.732 20.6175 10.732ZM33.843 13.216C32.847 13.216 31.881 13.084 30.945 12.82C30.021 12.544 29.277 12.19 28.713 11.758L29.703 9.562C30.243 9.958 30.885 10.276 31.629 10.516C32.373 10.756 33.117 10.876 33.861 10.876C34.689 10.876 35.301 10.756 35.697 10.516C36.093 10.264 36.291 9.934 36.291 9.526C36.291 9.226 36.171 8.98 35.931 8.788C35.703 8.584 35.403 8.422 35.031 8.302C34.671 8.182 34.179 8.05 33.555 7.906C32.595 7.678 31.809 7.45 31.197 7.222C30.585 6.994 30.057 6.628 29.613 6.124C29.181 5.62 28.965 4.948 28.965 4.108C28.965 3.376 29.163 2.716 29.559 2.128C29.955 1.528 30.549 1.054 31.341 0.705999C32.145 0.358 33.123 0.184 34.275 0.184C35.079 0.184 35.865 0.28 36.633 0.471999C37.401 0.664 38.073 0.94 38.649 1.3L37.749 3.514C36.585 2.854 35.421 2.524 34.257 2.524C33.441 2.524 32.835 2.656 32.439 2.92C32.055 3.184 31.863 3.532 31.863 3.964C31.863 4.396 32.085 4.72 32.529 4.936C32.985 5.14 33.675 5.344 34.599 5.548C35.559 5.776 36.345 6.004 36.957 6.232C37.569 6.46 38.091 6.82 38.523 7.312C38.967 7.804 39.189 8.47 39.189 9.31C39.189 10.03 38.985 10.69 38.577 11.29C38.181 11.878 37.581 12.346 36.777 12.694C35.973 13.042 34.995 13.216 33.843 13.216ZM52.6475 13L52.6295 5.44L48.9215 11.668H47.6075L43.9175 5.602V13H41.1815V0.399999H43.5935L48.3095 8.23L52.9535 0.399999H55.3475L55.3835 13H52.6475ZM68.1289 10.66V13H58.3729V0.399999H67.8949V2.74H61.2709V5.476H67.1209V7.744H61.2709V10.66H68.1289ZM73.0591 2.776H69.0271V0.399999H80.0071V2.776H75.9751V13H73.0591V2.776ZM81.576 0.399999H84.492V13H81.576V0.399999ZM93.5123 13.216C92.2283 13.216 91.0643 12.94 90.0203 12.388C88.9883 11.824 88.1723 11.05 87.5723 10.066C86.9843 9.07 86.6903 7.948 86.6903 6.7C86.6903 5.452 86.9843 4.336 87.5723 3.352C88.1723 2.356 88.9883 1.582 90.0203 1.03C91.0643 0.466 92.2343 0.184 93.5303 0.184C94.6223 0.184 95.6063 0.376 96.4823 0.76C97.3703 1.144 98.1143 1.696 98.7143 2.416L96.8423 4.144C95.9903 3.16 94.9343 2.668 93.6743 2.668C92.8943 2.668 92.1983 2.842 91.5863 3.19C90.9743 3.526 90.4943 4 90.1463 4.612C89.8103 5.224 89.6423 5.92 89.6423 6.7C89.6423 7.48 89.8103 8.176 90.1463 8.788C90.4943 9.4 90.9743 9.88 91.5863 10.228C92.1983 10.564 92.8943 10.732 93.6743 10.732C94.9343 10.732 95.9903 10.234 96.8423 9.238L98.7143 10.966C98.1143 11.698 97.3703 12.256 96.4823 12.64C95.5943 13.024 94.6043 13.216 93.5123 13.216ZM108.735 10.3H102.885L101.769 13H98.7814L104.397 0.399999H107.277L112.911 13H109.851L108.735 10.3ZM107.817 8.086L105.819 3.262L103.821 8.086H107.817ZM119.673 0.399999C120.789 0.399999 121.755 0.585999 122.571 0.957999C123.399 1.33 124.035 1.858 124.479 2.542C124.923 3.226 125.145 4.036 125.145 4.972C125.145 5.896 124.923 6.706 124.479 7.402C124.035 8.086 123.399 8.614 122.571 8.986C121.755 9.346 120.789 9.526 119.673 9.526H117.135V13H114.219V0.399999H119.673ZM119.511 7.15C120.387 7.15 121.053 6.964 121.509 6.592C121.965 6.208 122.193 5.668 122.193 4.972C122.193 4.264 121.965 3.724 121.509 3.352C121.053 2.968 120.387 2.776 119.511 2.776H117.135V7.15H119.511ZM132.68 0.399999C133.796 0.399999 134.762 0.585999 135.578 0.957999C136.406 1.33 137.042 1.858 137.486 2.542C137.93 3.226 138.152 4.036 138.152 4.972C138.152 5.896 137.93 6.706 137.486 7.402C137.042 8.086 136.406 8.614 135.578 8.986C134.762 9.346 133.796 9.526 132.68 9.526H130.142V13H127.226V0.399999H132.68ZM132.518 7.15C133.394 7.15 134.06 6.964 134.516 6.592C134.972 6.208 135.2 5.668 135.2 4.972C135.2 4.264 134.972 3.724 134.516 3.352C134.06 2.968 133.394 2.776 132.518 2.776H130.142V7.15H132.518Z" fill="#F9F9F9"/>
</svg>
