<?xml version="1.0" encoding="utf-8"?>
<!-- Generator: Adobe Illustrator 16.0.0, SVG Export Plug-In . SVG Version: 6.00 Build 0)  -->
<!DOCTYPE svg PUBLIC "-//W3C//DTD SVG 1.1//EN" "http://www.w3.org/Graphics/SVG/1.1/DTD/svg11.dtd">
<svg version="1.1" xmlns="http://www.w3.org/2000/svg" xmlns:xlink="http://www.w3.org/1999/xlink" x="0px" y="0px" width="200px"
	 height="200px" viewBox="0 0 200 200" enable-background="new 0 0 200 200" xml:space="preserve">
<g id="Layer_2">
	<rect width="200" height="200.001"/>
</g>
<g id="Layer_1">
	<path fill="#FFFFFF" d="M100,97.455c9.55,0,17.82-3.424,24.576-10.183c6.758-6.757,10.183-15.024,10.183-24.576
		c0-9.548-3.425-17.816-10.184-24.576C117.818,31.365,109.549,27.94,100,27.94c-9.551,0-17.819,3.425-24.576,10.182
		c-6.757,6.757-10.183,15.025-10.183,24.575c0,9.552,3.426,17.82,10.185,24.577C82.184,94.029,90.452,97.455,100,97.455z"/>
	<path fill="#FFFFFF" d="M159.907,138.716c-0.194-2.812-0.588-5.879-1.169-9.118c-0.586-3.263-1.34-6.349-2.242-9.168
		c-0.933-2.915-2.201-5.793-3.77-8.551c-1.626-2.863-3.538-5.355-5.684-7.407c-2.242-2.146-4.987-3.87-8.164-5.129
		c-3.164-1.252-6.671-1.886-10.421-1.886c-1.474,0-2.898,0.604-5.649,2.396c-1.693,1.104-3.675,2.382-5.886,3.794
		c-1.891,1.205-4.451,2.333-7.614,3.354c-3.086,0.999-6.22,1.505-9.312,1.505c-3.093,0-6.225-0.506-9.315-1.505
		c-3.16-1.021-5.721-2.149-7.609-3.354c-2.189-1.399-4.171-2.677-5.89-3.796c-2.749-1.792-4.174-2.396-5.647-2.396
		c-3.752,0-7.258,0.636-10.421,1.889c-3.173,1.256-5.92,2.981-8.165,5.13c-2.144,2.052-4.056,4.544-5.682,7.405
		c-1.566,2.758-2.834,5.635-3.768,8.552c-0.902,2.819-1.656,5.904-2.242,9.167c-0.58,3.234-0.974,6.304-1.169,9.123
		c-0.191,2.761-0.288,5.626-0.288,8.521c0,7.534,2.395,13.631,7.117,18.13c4.664,4.438,10.835,6.689,18.339,6.689h69.487
		c7.505,0,13.675-2.251,18.34-6.689c4.723-4.495,7.118-10.595,7.118-18.131C160.198,144.332,160.101,141.464,159.907,138.716z"/>
</g>
</svg>
