<?xml version="1.0"?>
<svg xmlns="http://www.w3.org/2000/svg" width="512" height="512" viewBox="0 0 128 128"><g><path d="M91.136,11.843A7.823,7.823,0,0,0,84.429,0H43.571a7.821,7.821,0,0,0-6.706,11.846L53.906,40.234V51.658a4.726,4.726,0,0,0-3.636,4.834l3.319,69.838A1.749,1.749,0,0,0,55.337,128H72.663a1.749,1.749,0,0,0,1.748-1.667l3.318-69.838a4.724,4.724,0,0,0-3.635-4.834V40.234ZM57.406,41.5H70.594V51.516H57.406ZM39.25,7.818A4.325,4.325,0,0,1,43.571,3.5H84.429a4.323,4.323,0,0,1,3.706,6.545L71.353,38H56.646L39.866,10.042A4.32,4.32,0,0,1,39.25,7.818ZM57.006,124.5l-1.089-22.925H72.083L70.994,124.5ZM72.249,98.072h-16.5l-.34-7.144H72.589Zm.507-10.644H55.244l-1.477-31.1a1.248,1.248,0,0,1,1.249-1.31H72.984a1.248,1.248,0,0,1,1.249,1.31Z"/><path d="M58.751,27.438A1.752,1.752,0,0,0,60.361,25L55.187,12.816a1.75,1.75,0,0,0-3.222,1.368l5.174,12.188A1.75,1.75,0,0,0,58.751,27.438Z"/><path d="M68.566,27.3a1.748,1.748,0,0,0,2.3-.926l5.174-12.188a1.751,1.751,0,0,0-3.223-1.368L67.639,25A1.751,1.751,0,0,0,68.566,27.3Z"/><path d="M64,20.125a1.75,1.75,0,0,0,1.75-1.75V10.313a1.75,1.75,0,0,0-3.5,0v8.062A1.75,1.75,0,0,0,64,20.125Z"/></g></svg>
