<?xml version="1.0"?>
<svg xmlns="http://www.w3.org/2000/svg" width="512" height="512" viewBox="0 0 128 128"><g><path d="M38.485,88.874h-.11a24.878,24.878,0,0,1-5.531-.62,1.75,1.75,0,0,0-.778,3.412,28.428,28.428,0,0,0,6.33.708h.089a1.75,1.75,0,0,0,0-3.5Z"/><path d="M50.887,85.493A24.8,24.8,0,0,1,45.8,87.745a1.75,1.75,0,1,0,1.048,3.339,28.313,28.313,0,0,0,5.807-2.569,1.75,1.75,0,0,0-1.766-3.022Z"/><path d="M57.712,45.632a1.75,1.75,0,0,0-.1-2.473A28.565,28.565,0,0,0,52.5,39.4a1.75,1.75,0,0,0-1.748,3.032,25.122,25.122,0,0,1,4.486,3.3,1.749,1.749,0,0,0,2.473-.1Z"/><path d="M62.348,75.711a1.75,1.75,0,0,0-2.39.645,25,25,0,0,1-3.3,4.489,1.75,1.75,0,0,0,2.573,2.373A28.585,28.585,0,0,0,62.993,78.1,1.751,1.751,0,0,0,62.348,75.711Z"/><path d="M25.952,85.544a25,25,0,0,1-4.479-3.31,1.75,1.75,0,0,0-2.38,2.567A28.592,28.592,0,0,0,24.2,88.574a1.751,1.751,0,1,0,1.754-3.03Z"/><path d="M45.948,38.411a1.75,1.75,0,0,0-1.322-2.092,28.415,28.415,0,0,0-6.251-.694H38.32a1.728,1.728,0,0,0-1.723,1.75,1.775,1.775,0,0,0,1.778,1.75,24.964,24.964,0,0,1,5.48.608,1.779,1.779,0,0,0,.387.043A1.751,1.751,0,0,0,45.948,38.411Z"/><path d="M14.607,71.35a1.749,1.749,0,1,0-3.342,1.036A28.206,28.206,0,0,0,13.816,78.2a1.75,1.75,0,0,0,3.027-1.757A24.811,24.811,0,0,1,14.607,71.35Z"/><path d="M62.127,56.6A1.75,1.75,0,0,0,63.8,57.83a1.726,1.726,0,0,0,.522-.081,1.749,1.749,0,0,0,1.149-2.191A28.3,28.3,0,0,0,62.9,49.747a1.75,1.75,0,0,0-3.023,1.763A24.8,24.8,0,0,1,62.127,56.6Z"/><path d="M63.25,64a24.964,24.964,0,0,1-.6,5.455,1.749,1.749,0,0,0,1.323,2.091,1.749,1.749,0,0,0,2.092-1.323,28.455,28.455,0,0,0,.686-6.253L65,63.917h1.75A1.715,1.715,0,0,0,65,62.208,1.786,1.786,0,0,0,63.25,64Z"/><path d="M25.029,42.719a1.741,1.741,0,0,0,.878-.238A24.834,24.834,0,0,1,31,40.24,1.75,1.75,0,0,0,29.96,36.9a28.3,28.3,0,0,0-5.812,2.558,1.75,1.75,0,0,0,.881,3.263Z"/><path d="M13.5,64a24.948,24.948,0,0,1,.614-5.506A1.75,1.75,0,1,0,10.7,57.72,28.42,28.42,0,0,0,10,64v.028a1.739,1.739,0,0,0,1.75,1.736A1.763,1.763,0,0,0,13.5,64Z"/><path d="M14.427,52.239a1.748,1.748,0,0,0,2.39-.64,25.12,25.12,0,0,1,3.306-4.482,1.75,1.75,0,0,0-2.569-2.377,28.568,28.568,0,0,0-3.767,5.108A1.75,1.75,0,0,0,14.427,52.239Z"/><path d="M80.5,37.13a28.814,28.814,0,0,0-2.962,1.2,1.75,1.75,0,1,0,1.5,3.165,24.646,24.646,0,0,1,2.6-1.052A1.751,1.751,0,0,0,80.5,37.13Z"/><path d="M112.587,54.435a1.75,1.75,0,0,0,3.229-1.351,28.421,28.421,0,0,0-2.934-5.325,1.75,1.75,0,0,0-2.867,2.008A24.919,24.919,0,0,1,112.587,54.435Z"/><path d="M114.9,72.566a1.751,1.751,0,0,0-2.287.945,24.917,24.917,0,0,1-2.563,4.676,1.75,1.75,0,1,0,2.871,2,28.366,28.366,0,0,0,2.924-5.334A1.75,1.75,0,0,0,114.9,72.566Z"/><path d="M105.2,83.38a25.02,25.02,0,0,1-4.484,2.882,1.75,1.75,0,1,0,1.566,3.13,28.4,28.4,0,0,0,5.113-3.287,1.75,1.75,0,1,0-2.2-2.725Z"/><path d="M117.834,60.927a1.75,1.75,0,1,0-3.479.377,25.11,25.11,0,0,1,.006,5.333,1.75,1.75,0,0,0,1.556,1.924,1.682,1.682,0,0,0,.186.01,1.751,1.751,0,0,0,1.739-1.566,28.59,28.59,0,0,0-.008-6.078Z"/><path d="M93.983,88.493a24.877,24.877,0,0,1-4.35.382,8.776,8.776,0,0,1-.969-.018,1.75,1.75,0,0,0-.135,3.5c.367.015.752.041,1.1.021A28.473,28.473,0,0,0,94.6,91.94a1.751,1.751,0,1,0-.613-3.447Z"/><path d="M100.665,41.712a25,25,0,0,1,4.493,2.872,1.75,1.75,0,1,0,2.189-2.73,28.528,28.528,0,0,0-5.122-3.276,1.75,1.75,0,1,0-1.56,3.134Z"/><path d="M88.605,39.146a25.005,25.005,0,0,1,5.321.351,1.75,1.75,0,0,0,.6-3.448,28.687,28.687,0,0,0-6.066-.4,1.75,1.75,0,0,0,.141,3.5Z"/><path d="M81.627,87.556a24.816,24.816,0,0,1-2.6-1.052,1.75,1.75,0,0,0-1.5,3.164,28.346,28.346,0,0,0,2.963,1.2,1.751,1.751,0,0,0,1.129-3.314Z"/><path d="M89.625,25.625a38.126,38.126,0,0,0-25.633,9.832,38.375,38.375,0,1,0,0,57.086A38.37,38.37,0,1,0,89.625,25.625ZM3.5,64A34.875,34.875,0,1,1,38.375,98.875,34.915,34.915,0,0,1,3.5,64ZM89.625,98.875a34.651,34.651,0,0,1-23.139-8.79,38.278,38.278,0,0,0,0-52.17,34.872,34.872,0,1,1,23.139,60.96Z"/></g></svg>
