<?xml version="1.0"?>
<svg xmlns="http://www.w3.org/2000/svg" width="512" height="512" viewBox="0 0 128 128"><g><path d="M98.865,89H89.931V31.222h4.437a1.75,1.75,0,0,0,0-3.5H89.931V22.8h7.913a1.75,1.75,0,0,0,0-3.5H89.931V14.378h4.437a1.75,1.75,0,0,0,0-3.5H89.931V5.75a5.75,5.75,0,0,0-11.5,0v5.128H73.993a1.75,1.75,0,0,0,0,3.5h4.438V19.3H70.518a1.75,1.75,0,0,0,0,3.5h7.913v4.922H73.993a1.75,1.75,0,0,0,0,3.5h4.438V89H69.5a1.751,1.751,0,0,0-1.75,1.75v30.5A6.758,6.758,0,0,0,74.5,128H93.865a6.758,6.758,0,0,0,6.75-6.75v-30.5A1.751,1.751,0,0,0,98.865,89ZM81.931,5.75a2.25,2.25,0,0,1,4.5,0V89h-4.5Zm15.184,115.5a3.254,3.254,0,0,1-3.25,3.25H74.5a3.254,3.254,0,0,1-3.25-3.25V92.5H97.115Z"/><path d="M58.5,35.5h-3.31V26a1.75,1.75,0,0,0-1.75-1.75H34.194A1.751,1.751,0,0,0,32.444,26v9.5H29.135a1.75,1.75,0,0,0-1.75,1.75v84a6.758,6.758,0,0,0,6.75,6.75H53.5a6.758,6.758,0,0,0,6.75-6.75v-84A1.751,1.751,0,0,0,58.5,35.5Zm-22.56-7.75h15.75V35.5H35.944ZM34.194,39h22.56V91.5H30.885V39Zm22.56,62.75H30.885V95H56.754ZM53.5,124.5H34.135a3.254,3.254,0,0,1-3.25-3.25v-16H56.754v16A3.254,3.254,0,0,1,53.5,124.5Z"/></g></svg>
