<?xml version="1.0"?>
<svg xmlns="http://www.w3.org/2000/svg" width="512" height="512" viewBox="0 0 128 128"><g><path d="M61.35,105.508,58.307,103.1a6.685,6.685,0,0,0-8.14-.077c-3.442,2.57-9.562,5.632-19.161,5.632-9.44,0-15.621-3.088-19.145-5.677a6.716,6.716,0,0,0-8.134.1L.663,105.508a1.751,1.751,0,0,0-.284,2.459,31.344,31.344,0,0,0,9.859,7.476L6.1,119.617a1.75,1.75,0,1,0,2.484,2.465l5.055-5.1a43,43,0,0,0,6.368,1.968L17.1,124a1.75,1.75,0,1,0,3.031,1.75l3.527-6.11a50.254,50.254,0,0,0,5.6.488v6.586a1.75,1.75,0,0,0,3.5,0v-6.586a50.233,50.233,0,0,0,5.6-.488l3.528,6.11A1.75,1.75,0,1,0,44.917,124l-2.911-5.042a42.963,42.963,0,0,0,6.368-1.968l5.056,5.1a1.75,1.75,0,1,0,2.484-2.465l-4.14-4.174a31.371,31.371,0,0,0,9.86-7.476,1.751,1.751,0,0,0-.284-2.459ZM48.156,113.3l-.02.009a42.688,42.688,0,0,1-17.13,3.343,42.7,42.7,0,0,1-17.126-3.341l-.025-.011a31.824,31.824,0,0,1-9.541-6.221L5.9,105.825a3.211,3.211,0,0,1,3.888-.029c3.945,2.9,10.83,6.358,21.218,6.358,10.56,0,17.387-3.44,21.254-6.326a3.182,3.182,0,0,1,3.873.014l1.565,1.239A31.8,31.8,0,0,1,48.156,113.3Z"/><path d="M127.988,106.679a1.752,1.752,0,0,0-.651-1.171l-3.064-2.427a6.717,6.717,0,0,0-8.133-.105c-3.525,2.59-9.707,5.678-19.147,5.678-9.6,0-15.718-3.062-19.161-5.632a6.685,6.685,0,0,0-8.139.076l-3.043,2.41a1.751,1.751,0,0,0-.284,2.459,31.359,31.359,0,0,0,9.859,7.476l-4.139,4.174a1.75,1.75,0,1,0,2.484,2.465l5.056-5.1a42.963,42.963,0,0,0,6.368,1.968L83.083,124a1.75,1.75,0,1,0,3.031,1.75l3.527-6.11a50.272,50.272,0,0,0,5.6.488v6.586a1.75,1.75,0,0,0,3.5,0v-6.586a50.254,50.254,0,0,0,5.6-.488l3.527,6.11A1.75,1.75,0,1,0,110.9,124l-2.91-5.042a43,43,0,0,0,6.368-1.968l5.055,5.1a1.75,1.75,0,1,0,2.484-2.465l-4.139-4.174a31.344,31.344,0,0,0,9.859-7.476A1.744,1.744,0,0,0,127.988,106.679ZM114.143,113.3l-.017.007a42.676,42.676,0,0,1-17.132,3.344,42.692,42.692,0,0,1-17.13-3.343l-.02-.009a31.8,31.8,0,0,1-9.542-6.221l1.565-1.24a3.182,3.182,0,0,1,3.872-.014c3.868,2.887,10.695,6.327,21.254,6.327,10.389,0,17.274-3.458,21.22-6.359a3.211,3.211,0,0,1,3.887.03l1.585,1.256A31.8,31.8,0,0,1,114.143,113.3Z"/><path d="M2.27,95.38l7.06-2.2a38.434,38.434,0,0,1,18.995-.973l19.834,4.012a4.829,4.829,0,0,0,.953.1,4.728,4.728,0,0,0,3.419-1.464L56.2,91.027a4.75,4.75,0,0,0-2.345-7.911L40.883,80.073A42.1,42.1,0,0,0,1.574,91.4L.505,92.479a1.75,1.75,0,0,0,1.765,2.9Zm37.814-11.9,12.97,3.043a1.25,1.25,0,0,1,.616,2.081l-3.665,3.826a1.261,1.261,0,0,1-1.152.36L29.019,88.779a41.921,41.921,0,0,0-19.95.826A38.6,38.6,0,0,1,40.084,83.481Z"/><path d="M87.117,80.073l-12.97,3.043A4.75,4.75,0,0,0,71.8,91.027l3.667,3.826a4.72,4.72,0,0,0,3.418,1.464,4.819,4.819,0,0,0,.952-.1l19.835-4.012a38.421,38.421,0,0,1,19,.973l7.059,2.2a1.75,1.75,0,0,0,1.766-2.9L126.426,91.4A42.1,42.1,0,0,0,87.117,80.073Zm11.864,8.706L79.145,92.791A1.255,1.255,0,0,1,78,92.431L74.33,88.605a1.25,1.25,0,0,1,.616-2.081l12.97-3.043a37.851,37.851,0,0,1,8.65-1,38.765,38.765,0,0,1,22.365,7.122A41.928,41.928,0,0,0,98.981,88.779Z"/><path d="M46.084,69.392a1.733,1.733,0,0,0,.639-.121l9.923-3.892,14.382-5.641c.01,0,.019-.011.029-.015a1.751,1.751,0,0,0,.332-.181c.031-.021.057-.048.086-.071a1.757,1.757,0,0,0,.158-.13l55.86-56.363A1.75,1.75,0,0,0,126.25,0H97.207A1.75,1.75,0,0,0,95.97.51L54.38,42.1a1.641,1.641,0,0,0-.12.147c-.026.032-.055.061-.078.095a1.738,1.738,0,0,0-.191.351l0,.005L48.348,57.08,44.455,67a1.751,1.751,0,0,0,1.629,2.389Zm4.69-8.914c.447.371.886.756,1.3,1.172s.8.855,1.172,1.3l-4.071,1.6Zm19.61-4.849-4.822-4.821L112.873,3.5h9.179ZM97.932,3.5h9.992L63.088,48.333l-5-5ZM56.27,46.465,67.262,57.456l-10.6,4.159c-.05-.067-.106-.129-.157-.2q-.336-.442-.7-.871c-.087-.1-.173-.2-.261-.306-.319-.364-.647-.721-.991-1.066s-.7-.674-1.068-.993c-.1-.087-.2-.171-.3-.257q-.432-.365-.88-.705c-.065-.049-.126-.1-.192-.154Z"/></g></svg>
