<?xml version="1.0"?>
<svg xmlns="http://www.w3.org/2000/svg" width="512" height="512" viewBox="0 0 128 128"><g><path d="M2.27,16.409l7.06-2.2a38.466,38.466,0,0,1,18.995-.973l19.834,4.013a4.831,4.831,0,0,0,.953.1,4.729,4.729,0,0,0,3.419-1.465L56.2,12.058a4.75,4.75,0,0,0-2.345-7.911L40.883,1.1A42.105,42.105,0,0,0,1.574,12.426L.505,13.508a1.75,1.75,0,0,0,1.765,2.9Zm37.814-11.9,12.97,3.043a1.249,1.249,0,0,1,.616,2.081l-3.665,3.825a1.25,1.25,0,0,1-1.152.36L29.019,9.809a41.927,41.927,0,0,0-19.948.825A38.6,38.6,0,0,1,40.084,4.512Z"/><path d="M75.47,15.883a4.721,4.721,0,0,0,3.418,1.465,4.821,4.821,0,0,0,.952-.1l19.835-4.013a38.433,38.433,0,0,1,19,.973l7.059,2.2a1.75,1.75,0,0,0,1.766-2.9l-1.069-1.082A42.109,42.109,0,0,0,87.117,1.1L74.147,4.147A4.75,4.75,0,0,0,71.8,12.058ZM74.034,8.416a1.226,1.226,0,0,1,.912-.861l12.97-3.043a37.851,37.851,0,0,1,8.65-1,38.76,38.76,0,0,1,22.363,7.12,41.932,41.932,0,0,0-19.948-.825L79.145,13.821A1.245,1.245,0,0,1,78,13.461L74.33,9.636A1.228,1.228,0,0,1,74.034,8.416Z"/><path d="M127.5,32.328c-.485-.5-12.055-12.151-26.65-12.151S74.685,31.832,74.2,32.328a1.75,1.75,0,0,0,0,2.447c.486.5,12.055,12.152,26.652,12.152s26.165-11.655,26.65-12.152A1.75,1.75,0,0,0,127.5,32.328Zm-39.132-5.6a14.144,14.144,0,0,0,0,13.648,46.387,46.387,0,0,1-10.342-6.824A46.3,46.3,0,0,1,88.369,26.728Zm7.1,16.1a10.705,10.705,0,0,1,0-18.546,24.37,24.37,0,0,1,10.762,0,10.707,10.707,0,0,1-.008,18.551,24.385,24.385,0,0,1-10.752,0Zm17.854-2.438a14.145,14.145,0,0,0,.006-13.659,46.3,46.3,0,0,1,10.344,6.826A46.064,46.064,0,0,1,113.325,40.387Z"/><path d="M27.149,46.927c14.6,0,26.166-11.655,26.652-12.152a1.75,1.75,0,0,0,0-2.447c-.486-.5-12.055-12.151-26.652-12.151S.984,31.832.5,32.328a1.75,1.75,0,0,0,0,2.447C.984,35.272,12.554,46.927,27.149,46.927Zm12.482-6.551a14.144,14.144,0,0,0,0-13.648,46.328,46.328,0,0,1,10.342,6.824A46.387,46.387,0,0,1,39.631,40.376Zm-7.1-16.1a10.705,10.705,0,0,1,0,18.546,24.332,24.332,0,0,1-10.758,0,10.706,10.706,0,0,1,0-18.55,24.407,24.407,0,0,1,10.757,0ZM14.674,26.717a14.148,14.148,0,0,0,0,13.659A46.331,46.331,0,0,1,4.325,33.55,46.077,46.077,0,0,1,14.674,26.717Z"/><path d="M81.277,58.724l-9.924,3.891L56.972,68.256l-.014.007a1.776,1.776,0,0,0-.348.189c-.03.021-.055.047-.084.07a1.813,1.813,0,0,0-.159.131L.507,125.016A1.75,1.75,0,0,0,1.75,128H30.793a1.746,1.746,0,0,0,1.237-.513L73.62,85.9a1.863,1.863,0,0,0,.121-.148c.025-.032.054-.061.077-.095a1.711,1.711,0,0,0,.191-.351l0,0,5.64-14.382,3.893-9.923a1.749,1.749,0,0,0-2.268-2.267Zm-4.051,8.792c-.448-.37-.886-.756-1.3-1.172s-.8-.855-1.172-1.3l4.071-1.6Zm-19.61,4.849,4.821,4.821L15.127,124.5H5.948ZM30.068,124.5H20.076L64.912,79.661l5,5ZM71.729,81.529,60.738,70.538l10.6-4.159c.049.067.106.129.157.2q.336.443.7.871c.087.1.173.2.261.306.319.364.647.722.991,1.066s.7.673,1.067.992c.1.088.2.173.3.258q.431.365.878.7c.065.05.127.106.193.155Z"/></g></svg>
