<?xml version="1.0"?>
<svg xmlns="http://www.w3.org/2000/svg" width="512" height="512" viewBox="0 0 128 128"><g><path d="M53.852,39.685,40.883,36.642A42.1,42.1,0,0,0,1.575,47.964L.505,49.046a1.75,1.75,0,0,0,1.765,2.9l7.06-2.2a38.445,38.445,0,0,1,18.995-.972l19.834,4.012a4.833,4.833,0,0,0,.954.1,4.725,4.725,0,0,0,3.418-1.465L56.2,47.6a4.749,4.749,0,0,0-2.344-7.911Zm-.182,5.489h0L50,49a1.251,1.251,0,0,1-1.15.36L29.019,45.348a41.941,41.941,0,0,0-19.948.824A38.6,38.6,0,0,1,40.083,40.05l12.97,3.043a1.249,1.249,0,0,1,.617,2.081Z"/><path d="M78.888,52.886a4.821,4.821,0,0,0,.952-.1l19.835-4.012a38.446,38.446,0,0,1,19,.972l7.059,2.2a1.75,1.75,0,0,0,1.766-2.9l-1.069-1.082A42.1,42.1,0,0,0,87.117,36.642l-12.97,3.043A4.75,4.75,0,0,0,71.8,47.6l3.667,3.825A4.721,4.721,0,0,0,78.888,52.886Zm-4.854-8.932a1.226,1.226,0,0,1,.912-.861l12.97-3.043a37.851,37.851,0,0,1,8.65-1,38.76,38.76,0,0,1,22.363,7.12,41.922,41.922,0,0,0-19.948-.824L79.145,49.359A1.249,1.249,0,0,1,78,49L74.33,45.174A1.228,1.228,0,0,1,74.034,43.954Z"/><path d="M100.851,55.715c-14.6,0-26.166,11.655-26.652,12.151a1.751,1.751,0,0,0,0,2.448c.486.5,12.055,12.151,26.652,12.151S127.016,70.81,127.5,70.314a1.751,1.751,0,0,0,0-2.448C127.016,67.37,115.446,55.715,100.851,55.715ZM88.369,62.266a14.144,14.144,0,0,0,0,13.648A46.387,46.387,0,0,1,78.027,69.09,46.3,46.3,0,0,1,88.369,62.266Zm7.1,16.1a10.705,10.705,0,0,1,0-18.546,24.35,24.35,0,0,1,10.762,0,10.706,10.706,0,0,1-.008,18.55,24.385,24.385,0,0,1-10.752,0Zm17.854-2.438a14.145,14.145,0,0,0,.006-13.659,46.331,46.331,0,0,1,10.344,6.826A46.064,46.064,0,0,1,113.325,75.925Z"/><path d="M127.687,80.994a1.751,1.751,0,0,0-2.436-.438c-.8.554-1.613,1.091-2.429,1.6a1.751,1.751,0,0,0,1.846,2.975c.866-.538,1.734-1.108,2.581-1.7A1.753,1.753,0,0,0,127.687,80.994Z"/><path d="M116.185,85.631a43.8,43.8,0,0,1-5.268,1.885,1.749,1.749,0,1,0,.959,3.365,47.09,47.09,0,0,0,5.691-2.035,1.75,1.75,0,0,0-1.382-3.215Z"/><path d="M103.632,88.853a34.8,34.8,0,0,1-5.536,0,1.75,1.75,0,0,0-.28,3.489c1.009.081,2.031.122,3.035.122s2.04-.042,3.062-.124a1.75,1.75,0,1,0-.281-3.488Z"/><path d="M90.809,87.522a43.5,43.5,0,0,1-5.268-1.88,1.749,1.749,0,1,0-1.383,3.214,46.881,46.881,0,0,0,5.694,2.034,1.751,1.751,0,0,0,.957-3.368Z"/><path d="M78.879,82.152c-.817-.5-1.634-1.043-2.432-1.595a1.749,1.749,0,0,0-1.994,2.875c.846.587,1.714,1.157,2.58,1.695a1.751,1.751,0,0,0,1.846-2.975Z"/><path d="M27.15,55.715C12.554,55.715.984,67.37.5,67.866a1.749,1.749,0,0,0,0,2.448c.485.5,12.055,12.151,26.651,12.151S53.315,70.81,53.8,70.314a1.749,1.749,0,0,0,0-2.448C53.315,67.37,41.746,55.715,27.15,55.715ZM14.668,62.266a14.148,14.148,0,0,0,0,13.648A46.339,46.339,0,0,1,4.327,69.09,46.282,46.282,0,0,1,14.668,62.266Zm7.1,16.1a10.705,10.705,0,0,1,0-18.547,24.356,24.356,0,0,1,10.759,0,10.706,10.706,0,0,1-.007,18.551,24.4,24.4,0,0,1-10.75,0Zm17.853-2.439a14.152,14.152,0,0,0,.006-13.659,46.3,46.3,0,0,1,10.343,6.826A46.053,46.053,0,0,1,39.625,75.925Z"/><path d="M5.178,82.152c-.819-.507-1.636-1.044-2.429-1.595a1.75,1.75,0,1,0-2,2.873c.843.587,1.712,1.157,2.582,1.7a1.75,1.75,0,0,0,1.845-2.975Z"/><path d="M29.905,88.854a34.7,34.7,0,0,1-5.537,0,1.75,1.75,0,1,0-.281,3.488c1.022.082,2.052.124,3.062.124s2.026-.041,3.035-.122a1.75,1.75,0,0,0-.279-3.489Z"/><path d="M17.083,87.516a43.659,43.659,0,0,1-5.267-1.885,1.75,1.75,0,1,0-1.383,3.215,47.09,47.09,0,0,0,5.691,2.035,1.749,1.749,0,1,0,.959-3.365Z"/><path d="M42.46,85.642a43.647,43.647,0,0,1-5.269,1.88,1.751,1.751,0,0,0,.958,3.368,47.061,47.061,0,0,0,5.693-2.034,1.749,1.749,0,1,0-1.382-3.214Z"/><path d="M51.551,80.557c-.8.554-1.616,1.09-2.429,1.595a1.75,1.75,0,1,0,1.844,2.975c.865-.536,1.733-1.106,2.581-1.695a1.75,1.75,0,1,0-2-2.875Z"/></g></svg>
