<?xml version="1.0"?>
<svg xmlns="http://www.w3.org/2000/svg" width="512" height="512" viewBox="0 0 128 128"><g><path d="M99.077,92.346H94.71A36.687,36.687,0,0,0,81.783,66.079l-7.352-6.241L84.606,51.2A28.7,28.7,0,0,0,94.751,29.282V1.747A1.749,1.749,0,0,0,93,0H35a1.749,1.749,0,0,0-1.75,1.75V29.282A28.7,28.7,0,0,0,43.394,51.2l10.175,8.637-7.352,6.241A36.683,36.683,0,0,0,33.29,92.346H28.924a17.826,17.826,0,1,0,17.825,17.826V94.1a23.215,23.215,0,0,1,8.2-17.726L64,68.691l9.047,7.679a23.215,23.215,0,0,1,8.2,17.726v16.076A17.826,17.826,0,1,0,99.077,92.346ZM52.131,40.91a15.23,15.23,0,0,1-5.382-11.628V25.75h34.5v3.532A15.23,15.23,0,0,1,75.869,40.91L64,50.985ZM46.913,22.25a9.391,9.391,0,0,1,9.212-7.627h15.75a9.391,9.391,0,0,1,9.212,7.627Zm44.338,7.032a25.212,25.212,0,0,1-8.91,19.251l-10.614,9.01-.59-.5L66.7,53.28l11.431-9.7a18.722,18.722,0,0,0,6.616-14.3V3.5h6.5Zm-10-14.08a12.829,12.829,0,0,0-9.376-4.079H56.125A12.829,12.829,0,0,0,46.749,15.2V3.5h34.5ZM52.687,73.7A26.711,26.711,0,0,0,43.249,94.1v16.076A14.326,14.326,0,1,1,28.924,95.846H35a1.749,1.749,0,0,0,1.75-1.75A33.191,33.191,0,0,1,48.482,68.747l7.791-6.614L61.3,66.4Zm46.389,50.8a14.341,14.341,0,0,1-14.325-14.325V94.1A26.712,26.712,0,0,0,75.312,73.7L65.135,65.064l0,0-6.062-5.144L45.659,48.533a25.212,25.212,0,0,1-8.91-19.251V3.5h6.5V29.282a18.722,18.722,0,0,0,6.616,14.3l13,11.036h0l.656.556L79.518,68.747A33.191,33.191,0,0,1,91.251,94.1,1.749,1.749,0,0,0,93,95.846h6.076a14.326,14.326,0,0,1,0,28.651Z"/><path d="M99.076,100.346a9.826,9.826,0,1,0,9.826,9.825A9.836,9.836,0,0,0,99.076,100.346Zm0,16.151a6.333,6.333,0,0,1-6.325-6.325h0a6.326,6.326,0,1,1,6.325,6.326Z"/><path d="M28.923,100.346a9.826,9.826,0,1,0,9.826,9.826h0A9.836,9.836,0,0,0,28.923,100.346Zm0,16.151a6.326,6.326,0,1,1,6.326-6.325A6.333,6.333,0,0,1,28.923,116.5Z"/></g></svg>
