<?xml version="1.0"?>
<svg xmlns="http://www.w3.org/2000/svg" width="512" height="512" viewBox="0 0 128 128"><g><path d="M61.35,65.8l-3.043-2.41a6.685,6.685,0,0,0-8.139-.075c-3.443,2.568-9.563,5.631-19.162,5.631-9.441,0-15.622-3.088-19.145-5.678a6.714,6.714,0,0,0-8.134.106L.664,65.8a1.751,1.751,0,0,0-.286,2.459,31.371,31.371,0,0,0,9.86,7.476L6.1,79.9a1.75,1.75,0,0,0,2.485,2.465l5.056-5.1a42.983,42.983,0,0,0,6.367,1.969L17.1,84.282a1.75,1.75,0,1,0,3.031,1.75l3.528-6.11a50.493,50.493,0,0,0,5.6.488V87a1.75,1.75,0,0,0,3.5,0V80.41a50.472,50.472,0,0,0,5.6-.488l3.528,6.11a1.75,1.75,0,1,0,3.031-1.75L42.006,79.24a43,43,0,0,0,6.368-1.969l5.055,5.1A1.75,1.75,0,0,0,55.915,79.9l-4.14-4.174a31.374,31.374,0,0,0,9.859-7.476A1.751,1.751,0,0,0,61.35,65.8ZM48.16,73.587l-.031.014a42.684,42.684,0,0,1-17.123,3.34A42.681,42.681,0,0,1,13.885,73.6l-.033-.014a31.8,31.8,0,0,1-9.538-6.219L5.9,66.112a3.21,3.21,0,0,1,3.888-.029c3.944,2.9,10.828,6.358,21.218,6.358,10.559,0,17.387-3.44,21.255-6.326a3.18,3.18,0,0,1,3.872.013l1.565,1.24A31.784,31.784,0,0,1,48.16,73.587Z"/><path d="M127.988,66.966a1.743,1.743,0,0,0-.652-1.171l-3.063-2.426a6.716,6.716,0,0,0-8.134-.106c-3.523,2.59-9.7,5.678-19.145,5.678-9.6,0-15.719-3.063-19.162-5.631a6.681,6.681,0,0,0-8.139.075L66.65,65.8a1.751,1.751,0,0,0-.284,2.459,31.374,31.374,0,0,0,9.859,7.476L72.085,79.9a1.75,1.75,0,0,0,2.486,2.465l5.055-5.1a42.96,42.96,0,0,0,6.368,1.969l-2.912,5.042a1.75,1.75,0,1,0,3.032,1.75l3.528-6.11a50.451,50.451,0,0,0,5.6.488V87a1.75,1.75,0,1,0,3.5,0V80.41a50.453,50.453,0,0,0,5.6-.488l3.528,6.11a1.75,1.75,0,0,0,3.032-1.75l-2.912-5.042a42.96,42.96,0,0,0,6.368-1.969l5.055,5.1A1.75,1.75,0,0,0,121.9,79.9l-4.14-4.174a31.371,31.371,0,0,0,9.86-7.476A1.748,1.748,0,0,0,127.988,66.966Zm-13.841,6.621-.031.014a42.683,42.683,0,0,1-17.122,3.34A42.686,42.686,0,0,1,79.872,73.6l-.033-.014A31.789,31.789,0,0,1,70.3,67.368l1.565-1.24a3.179,3.179,0,0,1,3.872-.013c3.868,2.886,10.7,6.326,21.255,6.326,10.39,0,17.274-3.458,21.218-6.358a3.21,3.21,0,0,1,3.888.029l1.585,1.256A31.784,31.784,0,0,1,114.147,73.587Z"/><path d="M2.27,55.667l7.06-2.2A38.469,38.469,0,0,1,28.325,52.5L48.16,56.509a4.809,4.809,0,0,0,.951.1,4.728,4.728,0,0,0,3.42-1.465L56.2,51.315A4.75,4.75,0,0,0,53.852,43.4L40.883,40.361A42.082,42.082,0,0,0,1.575,51.683L.505,52.766a1.75,1.75,0,0,0,1.765,2.9Zm37.813-11.9,12.97,3.043a1.249,1.249,0,0,1,.616,2.082L50,52.718a1.242,1.242,0,0,1-1.15.36L29.019,49.066a41.952,41.952,0,0,0-19.949.826A38.616,38.616,0,0,1,40.083,43.768Z"/><path d="M75.469,55.14a4.728,4.728,0,0,0,3.42,1.465,4.809,4.809,0,0,0,.951-.1L99.675,52.5a38.42,38.42,0,0,1,19,.971l7.059,2.2a1.75,1.75,0,0,0,1.766-2.9l-1.07-1.083A42.086,42.086,0,0,0,87.117,40.361L74.148,43.4A4.75,4.75,0,0,0,71.8,51.315Zm-1.435-7.468a1.227,1.227,0,0,1,.913-.861l12.969-3.043a38.609,38.609,0,0,1,31.013,6.124,41.937,41.937,0,0,0-19.949-.826L79.146,53.078a1.238,1.238,0,0,1-1.15-.36l-3.665-3.825A1.228,1.228,0,0,1,74.034,47.672Z"/></g></svg>
