<?xml version="1.0"?>
<svg xmlns="http://www.w3.org/2000/svg" width="512" height="512" viewBox="0 0 128 128"><g><path d="M54.066,84.385a7.854,7.854,0,0,0,6.078-2.555,1.75,1.75,0,1,0-2.7-2.225,5.093,5.093,0,0,1-6.754,0,1.75,1.75,0,0,0-2.7,2.225A7.855,7.855,0,0,0,54.066,84.385Z"/><path d="M61.826,61.363a8.581,8.581,0,0,0,6.034-.03,1.751,1.751,0,0,0-1.246-3.272,5.09,5.09,0,0,1-3.582.017l-.067-.024a1.717,1.717,0,0,0-2.209,1.052A1.78,1.78,0,0,0,61.826,61.363Z"/><path d="M40.53,61.333a8.582,8.582,0,0,0,6.029.032l.066-.024-.6-1.644-.673-1.617a5.085,5.085,0,0,1-3.576-.019,1.751,1.751,0,0,0-1.246,3.272Z"/><path d="M22.055,48.048a1.754,1.754,0,0,0,1.632-1.113c.025-.066,2.621-6.519,8.7-8.066a1.75,1.75,0,1,0-.864-3.392c-7.856,2-10.971,9.859-11.1,10.193a1.75,1.75,0,0,0,1.632,2.378Z"/><path d="M71.356,113.981l-2.979.334a21.562,21.562,0,0,0-11.863,5.231l2.3,2.633a18.085,18.085,0,0,1,9.947-4.386l2.979-.333a1.75,1.75,0,0,0-.389-3.479Z"/><path d="M40.013,114.315l-2.978-.334a1.75,1.75,0,0,0-.389,3.479l2.978.333a18.082,18.082,0,0,1,9.947,4.386,1.75,1.75,0,1,0,2.306-2.633A21.562,21.562,0,0,0,40.013,114.315Z"/><path d="M54.452,74.431h2.013a1.75,1.75,0,1,0,0-3.5l-1.992.024.731-4.821a1.75,1.75,0,0,0-3.461-.524l-.731,4.822a3.478,3.478,0,0,0,3.44,4Z"/><path d="M94.767,109.627a47.225,47.225,0,0,0-8.727-1.261c-2.67-.233-3.562-.273-8.152-.676a30.125,30.125,0,0,1-3.631-.637L74,106.936a6.131,6.131,0,0,1-2.04-1.267,5.9,5.9,0,0,1-.941-1.268,5.176,5.176,0,0,1-.6-1.791l-1-7.813a24.226,24.226,0,0,0,3.479-3.449l.37.676a1.75,1.75,0,0,0,3.071,0l2.905-5.312,5.312-2.905a1.75,1.75,0,0,0,0-3.071l-5.312-2.905-.4-.733.162-.813c.056-.283.116-.559.172-.841a8.664,8.664,0,0,0,1.7.177,8.754,8.754,0,0,0,8.706-9.66A27.892,27.892,0,0,0,68.874,19.613h-.013l-.015,0-.017,0-.164,0H39.725A27.9,27.9,0,0,0,18.8,65.961a8.754,8.754,0,0,0,8.706,9.66,8.674,8.674,0,0,0,1.7-.177c.055.279.115.554.17.834a47.97,47.97,0,0,0,2.318,8.773,24.261,24.261,0,0,0,7.266,9.767l-.994,7.774A5.313,5.313,0,0,1,36.81,105.2a5.839,5.839,0,0,1-.489.522,6.312,6.312,0,0,1-2.254,1.381,34.415,34.415,0,0,1-5.74.741c-.931.071-1.863.133-2.8.193a59.56,59.56,0,0,0-11.907,1.594A24.955,24.955,0,0,0,.352,118.653,1.748,1.748,0,0,0,0,119.706v6.546A1.75,1.75,0,0,0,1.75,128H106.641a1.75,1.75,0,0,0,1.75-1.75v-6.545a1.755,1.755,0,0,0-.352-1.053A24.959,24.959,0,0,0,94.767,109.627ZM80.078,82.272l-2.955,1.616a1.741,1.741,0,0,0-.7.695l-1.616,2.954L73.2,84.583a1.741,1.741,0,0,0-.695-.695l-2.955-1.616L72.5,80.655a1.741,1.741,0,0,0,.695-.7l1.616-2.954,1.616,2.954a1.741,1.741,0,0,0,.7.7Zm.8-10.151a5.138,5.138,0,0,1-.976-.1l1.218-5.562a24.618,24.618,0,0,0,.543-4.764,5.251,5.251,0,0,1,4.358,4.1l0,.011a5.256,5.256,0,0,1-5.146,6.311ZM93.069,47.512A24.3,24.3,0,0,1,88.212,62.1a8.754,8.754,0,0,0-6.533-3.941v-.235A16.071,16.071,0,0,0,71.528,42.928l-12.951-5.18A25.13,25.13,0,0,0,70.188,23.162,24.471,24.471,0,0,1,93.069,47.512Zm-77.748,0a24.432,24.432,0,0,1,24.4-24.4h26.8A21.608,21.608,0,0,1,54.183,36l-.638.255-5.781,2.312-.845-.463-2.906-5.312a1.75,1.75,0,0,0-3.07,0L38.037,38.1,32.726,41.01a1.749,1.749,0,0,0,0,3.07l.989.541a16.081,16.081,0,0,0-7,13.3v.235A8.754,8.754,0,0,0,20.178,62.1,24.3,24.3,0,0,1,15.321,47.512Zm21.891-4.967,2.954-1.616a1.74,1.74,0,0,0,.7-.7l1.616-2.955,1.616,2.955a1.74,1.74,0,0,0,.7.7l2.954,1.616L44.79,44.16a1.743,1.743,0,0,0-.7.7L42.478,47.81l-1.616-2.955a1.743,1.743,0,0,0-.7-.7ZM22.254,66.868a5.273,5.273,0,0,1,.107-1.058l0-.011a5.251,5.251,0,0,1,4.358-4.1,24.64,24.64,0,0,0,.545,4.77l1.216,5.556a5.138,5.138,0,0,1-.976.1A5.258,5.258,0,0,1,22.254,66.868ZM34.936,83.733A45.206,45.206,0,0,1,32.809,75.6c-.186-.941-.371-1.876-.572-2.8l-1.55-7.081a21.1,21.1,0,0,1-.476-4.439V57.921a12.6,12.6,0,0,1,7.078-11.345l.748.408L40.943,52.3a1.75,1.75,0,0,0,3.07,0l2.906-5.313,5.311-2.9a1.749,1.749,0,0,0,0-3.07l-.485-.265,2.45-.98,16.033,6.413a12.586,12.586,0,0,1,7.951,11.743v3.363a21.15,21.15,0,0,1-.474,4.433l-1.46,6.662a1.734,1.734,0,0,0-2.968.14l-2.905,5.312L65.06,80.736a1.75,1.75,0,0,0,0,3.071l5.312,2.905.7,1.282a20.838,20.838,0,0,1-4.548,4.619c-.045.034-.092.065-.133.1a20.809,20.809,0,0,1-24.357.038,1.769,1.769,0,0,0-.39-.283A20.717,20.717,0,0,1,34.936,83.733ZM104.891,124.5H3.5v-4.2A21.432,21.432,0,0,1,14.548,113a56.043,56.043,0,0,1,11.211-1.478,60.775,60.775,0,0,0,9.375-1.091,9.768,9.768,0,0,0,3.612-2.193,9.4,9.4,0,0,0,.782-.839,8.827,8.827,0,0,0,1.907-4.349l.77-6.026A24.358,24.358,0,0,0,66.182,97l.774,6.051a8.651,8.651,0,0,0,1,3.033,9.37,9.37,0,0,0,1.519,2.044,9.512,9.512,0,0,0,3.082,1.993,18.363,18.363,0,0,0,4.927,1.041c4.827.429,4.289.35,8.274.689A43.965,43.965,0,0,1,93.843,113a21.443,21.443,0,0,1,11.048,7.3Z"/><path d="M73.853,37.989c2.837,1.147,10.133,5.054,9.822,9.308a1.749,1.749,0,0,0,1.617,1.873c.043,0,.087,0,.13,0a1.75,1.75,0,0,0,1.743-1.622c.552-7.534-10.718-12.292-12-12.81a1.75,1.75,0,0,0-1.308,3.246Z"/><path d="M113.573.6a1.748,1.748,0,0,0-2.638,0c-1.477,1.693-14.428,16.787-14.428,24.937a15.747,15.747,0,0,0,31.493,0C128,17.385,115.05,2.291,113.573.6Zm-1.319,37.183a12.26,12.26,0,0,1-12.247-12.246c0-5.21,7.905-15.836,12.247-21.081C116.6,9.7,124.5,20.325,124.5,25.535A12.26,12.26,0,0,1,112.254,37.781Z"/><path d="M117.059,23.694H114V20.64a1.75,1.75,0,0,0-3.5,0v3.054h-3.056a1.75,1.75,0,0,0,0,3.5H110.5V30.25a1.75,1.75,0,1,0,3.5,0V27.194h3.055a1.75,1.75,0,0,0,0-3.5Z"/></g></svg>
