<svg height="512" viewBox="0 0 128 128" width="512" xmlns="http://www.w3.org/2000/svg"><path d="m128 36.533a29.08 29.08 0 0 0 -33.244-28.777l-84.319 12.2-8.937 1.294a1.75 1.75 0 0 0 -1.5 1.732v27.107a1.75 1.75 0 0 0 1.5 1.732l8.938 1.294 54.262 7.851-6.87 23.34-10.008 34a1.751 1.751 0 0 0 1.679 2.244h27.749a1.75 1.75 0 0 0 1.679-1.256l15.887-53.972a29.077 29.077 0 0 0 33.184-28.786zm-124.5-12.033 5.437-.787v25.648l-5.437-.787zm74.864 38.443-5.919 20.107h-10.6l1.738-5.905h5.79a1.75 1.75 0 0 0 0-3.5h-4.757l1.47-5h6.164a1.75 1.75 0 0 0 0-3.5h-5.133l1.083-3.673zm-2.424 54.106h-24.1l8.978-30.5h12.937a1.75 1.75 0 0 0 1.679-1.256l6.43-21.844 9.452 1.367zm19.318-55.2-82.821-11.981v-26.668l82.821-11.98a25.559 25.559 0 0 1 16.159 3h-.917a12.765 12.765 0 0 0 -12.75 12.75v19.13a12.765 12.765 0 0 0 12.75 12.75h.917a25.541 25.541 0 0 1 -16.159 3.001zm20.981-6.5h-5.739a9.26 9.26 0 0 1 -9.25-9.25v-19.126a9.26 9.26 0 0 1 9.25-9.25h5.739a25.562 25.562 0 0 1 5.819 7.916h-11.808a1.75 1.75 0 0 0 0 3.5h13.15a25.54 25.54 0 0 1 1.034 5.644h-14.184a1.75 1.75 0 0 0 0 3.5h14.183a25.559 25.559 0 0 1 -1.032 5.644h-13.151a1.75 1.75 0 0 0 0 3.5h11.811a25.56 25.56 0 0 1 -5.822 7.921z"/></svg>