<?xml version="1.0"?>
<svg xmlns="http://www.w3.org/2000/svg" width="512" height="512" viewBox="0 0 128 128"><path d="M127.925,30.945a1.744,1.744,0,0,0-.872-2.05L103.838,16.916h0a16.416,16.416,0,0,1-3.291-2.241l-11.2-9.814A19.643,19.643,0,0,0,69.8,1.146l-.4.145a15.721,15.721,0,0,1-10.722.026l-.228-.081A20.035,20.035,0,0,0,38.523,5.005L27.456,14.676a16.456,16.456,0,0,1-3.294,2.24L.947,28.9a1.768,1.768,0,0,0,.005,3.113l12.133,6.328a49.955,49.955,0,0,1,12.232,8.977l.852.852A53.11,53.11,0,0,0,53.557,62.8l-2.74,6.275v.005a1.727,1.727,0,0,0-.114.385c-.007.038-.007.075-.011.113a1.623,1.623,0,0,0-.02.2v56.474a1.75,1.75,0,0,0,1.75,1.75H75.579a1.75,1.75,0,0,0,1.75-1.75V69.773a1.623,1.623,0,0,0-.02-.2c0-.038,0-.075-.011-.113a1.727,1.727,0,0,0-.114-.385v-.005L74.443,62.8a53.11,53.11,0,0,0,27.388-14.633l.852-.852a49.955,49.955,0,0,1,12.232-8.977l12.115-6.318A1.814,1.814,0,0,0,127.925,30.945ZM25.767,20.026a19.973,19.973,0,0,0,3.993-2.715l11.066-9.67A16.561,16.561,0,0,1,57.332,4.555l.168.06a19.436,19.436,0,0,0,13.075-.03l.4-.144A16.136,16.136,0,0,1,87.035,7.494l11.2,9.814a19.892,19.892,0,0,0,3.993,2.718h0l14.922,7.7L96.677,25.555a25.706,25.706,0,0,0-15.955,3.568,22.05,22.05,0,0,1-11.445,3.2H58.723a22.045,22.045,0,0,1-11.445-3.2,25.7,25.7,0,0,0-15.955-3.568L10.845,27.726Zm29.328,48,5.225-11.97a25.161,25.161,0,0,0,7.36,0l5.225,11.97Zm6.683-15.31L64,47.624l2.222,5.089A21.024,21.024,0,0,1,61.778,52.713Zm-7.607,18.81h7.946V124.5H54.171ZM73.829,124.5H65.617V71.523h8.212ZM113.3,35.233a53.428,53.428,0,0,0-13.088,9.605l-.852.852A49.655,49.655,0,0,1,73.008,59.511l-2.677-6.132L65.6,42.55a1.749,1.749,0,0,0-3.207,0L57.669,53.379l-2.677,6.132A49.655,49.655,0,0,1,28.644,45.69l-.852-.852A53.447,53.447,0,0,0,14.7,35.233L7.7,31.58l23.993-2.545a22.163,22.163,0,0,1,13.77,3.079,25.539,25.539,0,0,0,13.261,3.711H69.277a25.547,25.547,0,0,0,13.261-3.71,22.174,22.174,0,0,1,13.77-3.08L120.3,31.58Z"/></svg>
