<?xml version="1.0"?>
<svg xmlns="http://www.w3.org/2000/svg" width="512" height="512" viewBox="0 0 128 128"><path d="M127.927,30.941a1.744,1.744,0,0,0-.874-2.046l-23.215-11.98h0a16.411,16.411,0,0,1-3.291-2.24L89.341,4.859A19.637,19.637,0,0,0,69.8,1.144l-.407.145a15.7,15.7,0,0,1-10.71.031l-.239-.086A20.023,20.023,0,0,0,38.523,5l-11.066,9.67a16.5,16.5,0,0,1-3.3,2.241L.947,28.9a1.763,1.763,0,0,0,.035,3.127l12.1,6.313a49.937,49.937,0,0,1,12.233,8.976l.852.852A53.42,53.42,0,0,0,81.044,61.031V64a1.75,1.75,0,0,0,1.75,1.75h.978V98.132H77.864a1.75,1.75,0,0,0-1.75,1.75v21.365a6.758,6.758,0,0,0,6.75,6.75H96.18a6.758,6.758,0,0,0,6.75-6.75V99.882a1.75,1.75,0,0,0-1.75-1.75H95.272V65.747h.978A1.75,1.75,0,0,0,98,64V51.6c1.365-1.121,2.662-2.272,3.831-3.441l.852-.852a49.951,49.951,0,0,1,12.232-8.976L127,32.032A1.808,1.808,0,0,0,127.927,30.941Zm-28.5,90.306a3.254,3.254,0,0,1-3.25,3.25H82.864a3.254,3.254,0,0,1-3.25-3.25V101.632H99.43ZM87.272,98.132V65.75h4.5V98.132ZM25.767,20.025A20.032,20.032,0,0,0,29.76,17.31L40.827,7.639a16.528,16.528,0,0,1,16.438-3.11l.235.085a19.434,19.434,0,0,0,13.072-.029l.406-.145A16.142,16.142,0,0,1,87.035,7.492l11.2,9.815a19.975,19.975,0,0,0,3.993,2.718h0l14.923,7.7L96.677,25.554a25.7,25.7,0,0,0-15.955,3.567,22.043,22.043,0,0,1-11.444,3.2H58.722a22.041,22.041,0,0,1-11.444-3.2,25.686,25.686,0,0,0-15.955-3.567L10.845,27.725ZM92.794,45.063H94.5V62.247H84.544V53.313a8.248,8.248,0,0,1,8.25-8.25Zm20.5-9.832a53.476,53.476,0,0,0-13.088,9.606l-.852.852c-.435.435-.888.87-1.356,1.3V43.313a1.75,1.75,0,0,0-1.75-1.75H92.794a11.763,11.763,0,0,0-11.75,11.75v4.01a49.924,49.924,0,0,1-52.4-11.634l-.852-.852A53.463,53.463,0,0,0,14.7,35.231l-7-3.653,23.992-2.544a22.184,22.184,0,0,1,13.77,3.079,25.54,25.54,0,0,0,13.26,3.711H69.278a25.54,25.54,0,0,0,13.26-3.711,22.164,22.164,0,0,1,13.77-3.079L120.3,31.578Z"/></svg>
