<?xml version="1.0"?>
<svg xmlns="http://www.w3.org/2000/svg" width="512" height="512" viewBox="0 0 128 128"><g><path d="M56.271,50.119c-.335-.148-.661-.3-.988-.453A19.394,19.394,0,0,0,45.955,47.5a19.361,19.361,0,0,0-9.323,2.164A15.966,15.966,0,0,1,28.788,51.5a15.964,15.964,0,0,1-7.848-1.838l-.771-.356a1.751,1.751,0,0,0-2.38,1.031,21.907,21.907,0,0,0-1.034,9.494l6.536,56.617A1.75,1.75,0,0,0,25.029,118H49.717a1.75,1.75,0,0,0,1.738-1.55L57.99,59.833a21.662,21.662,0,0,0-.748-8.6A1.746,1.746,0,0,0,56.271,50.119Zm-1.757,9.314L48.157,114.5H26.589L20.231,59.432a18.247,18.247,0,0,1,.342-6.086A18.851,18.851,0,0,0,28.788,55a19.368,19.368,0,0,0,9.322-2.164A15.967,15.967,0,0,1,45.955,51a15.994,15.994,0,0,1,7.851,1.836l.282.132A18.121,18.121,0,0,1,54.514,59.433Z"/><path d="M72.965,41.249a24.491,24.491,0,0,1,2.619-.988,1.75,1.75,0,0,0-1.047-3.34,27.844,27.844,0,0,0-2.992,1.129,1.75,1.75,0,0,0,1.42,3.2Z"/><path d="M108.484,71.961a1.751,1.751,0,0,0-2.263,1,24.8,24.8,0,0,1-2.388,4.641,1.75,1.75,0,0,0,2.926,1.92,28.186,28.186,0,0,0,2.725-5.3A1.749,1.749,0,0,0,108.484,71.961Z"/><path d="M111.18,60.55a1.75,1.75,0,1,0-3.475.424A24.993,24.993,0,0,1,107.889,64c0,.734-.033,1.472-.1,2.19a1.75,1.75,0,0,0,1.589,1.9c.053.005.1.007.156.007a1.75,1.75,0,0,0,1.741-1.6c.073-.821.11-1.662.11-2.5A28.72,28.72,0,0,0,111.18,60.55Z"/><path d="M82.445,39.134a25.431,25.431,0,0,1,5.2.426,1.75,1.75,0,0,0,.651-3.439,27.787,27.787,0,0,0-5.935-.485,1.75,1.75,0,0,0,.041,3.5Z"/><path d="M98.605,44.636a1.75,1.75,0,0,0,2.2-2.725,28.47,28.47,0,0,0-5-3.234A1.75,1.75,0,0,0,94.222,41.8,25.009,25.009,0,0,1,98.605,44.636Z"/><path d="M99.25,82.833a25,25,0,0,1-4.285,2.981,1.75,1.75,0,1,0,1.687,3.066,28.443,28.443,0,0,0,4.885-3.4,1.749,1.749,0,1,0-2.287-2.648Z"/><path d="M88.471,88.274a24.864,24.864,0,0,1-5.183.6,1.75,1.75,0,0,0,.018,3.5h.017a28.43,28.43,0,0,0,5.913-.685,1.75,1.75,0,0,0-.765-3.416Z"/><path d="M107.515,55.328a1.749,1.749,0,0,0,1.608-2.437,28.494,28.494,0,0,0-2.9-5.2,1.75,1.75,0,0,0-2.862,2.016,24.88,24.88,0,0,1,2.543,4.557A1.75,1.75,0,0,0,107.515,55.328Z"/><path d="M76.338,87.969a24.99,24.99,0,0,1-2.65-.9,1.749,1.749,0,1,0-1.316,3.242A28.22,28.22,0,0,0,75.4,91.34a1.75,1.75,0,1,0,.941-3.371Z"/><path d="M83.014,25.628a38.317,38.317,0,0,0-23.762,8.258L56.113,28.76V9.75A9.761,9.761,0,0,0,46.363,0H28.382a9.761,9.761,0,0,0-9.75,9.75V28.76l-7.347,12A31.891,31.891,0,0,0,6.821,60.98l7.047,61.043A6.748,6.748,0,0,0,20.573,128h33.6a6.751,6.751,0,0,0,6.706-5.976h0l2.866-24.834a38.375,38.375,0,1,0,19.27-71.561ZM22.132,9.75a6.257,6.257,0,0,1,6.25-6.25H46.363a6.257,6.257,0,0,1,6.25,6.25V27.5H22.132ZM57.4,121.622a3.25,3.25,0,0,1-3.229,2.878h-33.6a3.249,3.249,0,0,1-3.228-2.878L10.3,60.578a28.374,28.374,0,0,1,3.971-17.991L21.362,31H53.383l7.094,11.584a28.381,28.381,0,0,1,3.97,17.992ZM83.014,98.878A34.646,34.646,0,0,1,64.19,93.332L67.924,60.98a31.9,31.9,0,0,0-4.463-20.221l-2.368-3.868A34.871,34.871,0,1,1,83.014,98.878Z"/></g></svg>
