<?xml version="1.0"?>
<svg xmlns="http://www.w3.org/2000/svg" width="512" height="512" viewBox="0 0 128 128"><g><path d="M63.346,69.56l-1.56-1.178v-9a1.75,1.75,0,0,0-1.75-1.75H30.013a1.75,1.75,0,0,0-1.75,1.75v9L26.7,69.56a29.419,29.419,0,0,0-10.019,33.222l8.444,24.048A1.749,1.749,0,0,0,26.778,128H63.27a1.75,1.75,0,0,0,1.652-1.17l8.445-24.048A29.428,29.428,0,0,0,63.346,69.56ZM31.763,61.128H58.286V67.5H31.763Zm38.3,40.5L62.03,124.5H28.019l-8.034-22.877a25.921,25.921,0,0,1,8.827-29.27L30.6,71H59.449l1.786,1.349a25.925,25.925,0,0,1,8.829,29.271Z"/><path d="M57.767,77.889a1.755,1.755,0,0,0-1.1-.386H33.379a1.753,1.753,0,0,0-1.1.386A19.6,19.6,0,0,0,25.02,93.034a19.369,19.369,0,0,0,1.1,6.435l6.1,17.361A1.749,1.749,0,0,0,33.865,118H56.184a1.749,1.749,0,0,0,1.651-1.17l6.1-17.362a19.391,19.391,0,0,0,1.1-6.434A19.6,19.6,0,0,0,57.767,77.889Zm2.862,20.419L54.943,114.5H35.1L29.421,98.31a15.86,15.86,0,0,1-.9-5.276A16.081,16.081,0,0,1,34.014,81H56.035a16.08,16.08,0,0,1,5.493,12.031A15.867,15.867,0,0,1,60.629,98.308Z"/><path d="M107.711,1.591A1.751,1.751,0,0,0,105.968,0h-19.5a1.75,1.75,0,0,0-1.743,1.591L79.462,59.219a1.749,1.749,0,0,0,1.743,1.909h9.262V93.147l-7.926,26.6a1.749,1.749,0,0,0,.214,1.459,16.735,16.735,0,0,0,26.926,0,1.747,1.747,0,0,0,.213-1.46l-7.927-26.6V61.128h9.262a1.752,1.752,0,0,0,1.744-1.909ZM96.218,124.5a13.115,13.115,0,0,1-10.069-4.608l7.379-24.764h5.378l7.38,24.764A13.117,13.117,0,0,1,96.218,124.5Zm2.249-32.872h-4.5v-30.5h4.5Zm1.75-34H83.122L88.065,3.5H104.37l4.942,54.128Z"/></g></svg>
