<?xml version="1.0"?>
<svg xmlns="http://www.w3.org/2000/svg" width="512" height="512" viewBox="0 0 128 128"><g><path d="M106.784,35.875H121a7,7,0,0,0,0-14H61.25a7,7,0,0,0,0,14H75.531A37.021,37.021,0,0,0,62.8,45.649,35.046,35.046,0,0,0,3.494,58.44,4.743,4.743,0,0,0,0,63V75.5a4.743,4.743,0,0,0,3.494,4.56A35.046,35.046,0,0,0,62.8,92.851a36.87,36.87,0,1,0,43.986-56.976Zm-45.534-3.5a3.5,3.5,0,0,1,0-7H121a3.5,3.5,0,0,1,0,7ZM36.875,37.656A31.749,31.749,0,0,1,66.49,58.25H7.259A31.75,31.75,0,0,1,36.875,37.656ZM4.75,76.75A1.25,1.25,0,0,1,3.5,75.5V63a1.25,1.25,0,0,1,1.25-1.25H69A1.251,1.251,0,0,1,70.25,63V75.5A1.251,1.251,0,0,1,69,76.75H4.75Zm65.505,3.31a4.742,4.742,0,0,0,3.5-4.56V63a4.742,4.742,0,0,0-3.5-4.56q-.376-1.164-.832-2.287a25.375,25.375,0,1,1,0,26.194Q69.876,81.222,70.255,80.06Zm-33.38,20.784A31.75,31.75,0,0,1,7.259,80.25H66.49A31.749,31.749,0,0,1,36.875,100.844Zm54.25,1.781A33.53,33.53,0,0,1,65.077,90.09a34.894,34.894,0,0,0,2.6-4.047,28.875,28.875,0,1,0,0-33.586,34.894,34.894,0,0,0-2.6-4.047,33.368,33.368,0,1,1,26.048,54.215Z"/><path d="M80.5,58.5a1.743,1.743,0,0,0,1.237-.513L84.3,55.425a1.75,1.75,0,0,0-2.475-2.475l-2.562,2.563A1.75,1.75,0,0,0,80.5,58.5Z"/><path d="M96.187,57.219a1.744,1.744,0,0,0,1.238-.513l2.562-2.562a1.75,1.75,0,1,0-2.474-2.475L94.95,54.231a1.751,1.751,0,0,0,1.237,2.988Z"/><path d="M87.547,67.7a1.743,1.743,0,0,0,1.237-.513l2.563-2.562a1.75,1.75,0,0,0-2.475-2.475L86.31,64.716A1.75,1.75,0,0,0,87.547,67.7Z"/><path d="M104.047,68.984a1.742,1.742,0,0,0,1.237-.512l2.563-2.563a1.75,1.75,0,1,0-2.475-2.474L102.81,66a1.75,1.75,0,0,0,1.237,2.987Z"/><path d="M81.106,76.419a1.75,1.75,0,0,0,2.475,2.475l2.563-2.563a1.75,1.75,0,0,0-2.475-2.475Z"/><path d="M94.906,81.969a1.745,1.745,0,0,0,1.238-.513l2.562-2.562a1.75,1.75,0,1,0-2.475-2.475l-2.562,2.562a1.751,1.751,0,0,0,1.237,2.988Z"/></g></svg>
