<svg id="Capa_1" enable-background="new 0 0 128 128" height="512" viewBox="0 0 128 128" width="512" xmlns="http://www.w3.org/2000/svg"><g><g id="XMLID_1_"><path d="m122.01 96.14c5.75 10.1 2.31 22.94-7.72 28.82-10.12 5.93-23.13 2.54-29.07-7.58l-20.3-30.97c-.31.02-.61.05-.92.05s-.62-.03-.92-.04l-20.36 31.04c-1.62 2.77-3.85 5.15-6.52 6.94-9.74 6.53-22.93 3.92-29.46-5.82-6.53-9.75-3.92-22.94 5.82-29.47s22.93-3.92 29.46 5.82l9.01-16c-2.53-4.37-2.67-9.74-.35-14.23l-26.43-40.3c0-.01 0-.01-.01-.02-4.9-8.44-2.03-19.25 6.41-24.15h.02c.84-.48 1.91-.18 2.38.66l30.95 55 30.95-55s0-.01.01-.01c.48-.84 1.55-1.13 2.39-.65 8.42 4.88 11.31 15.65 6.45 24.09l-26.48 40.38c2.32 4.5 2.19 9.86-.35 14.24l9.01 16c1.81-2.71 4.22-4.96 7.04-6.59 10.15-5.86 23.14-2.37 28.99 7.79zm-2.32 18.13c4.15-8.87.32-19.43-8.55-23.58s-19.43-.32-23.58 8.55c-.28.6-.86.99-1.52 1.01-.66.03-1.27-.31-1.59-.89l-9.78-17.38c-1.68 1.71-3.75 2.99-6.03 3.73l19.56 29.83c0 .01.01.01.01.02 4.89 8.51 15.76 11.45 24.28 6.56 3.15-1.82 5.66-4.55 7.2-7.85zm-18.87-91.79c3.5-6.16 1.9-13.95-3.74-18.23l-29.65 52.69c3 .71 5.71 2.33 7.75 4.64zm-25.46 49.01c0-6.29-5.1-11.39-11.39-11.39s-11.39 5.1-11.39 11.39 5.1 11.39 11.39 11.39 11.39-5.1 11.39-11.39zm-14.79-14.56-29.65-52.68c-5.66 4.31-7.24 12.15-3.69 18.32l25.59 39.01c2.04-2.31 4.75-3.94 7.75-4.65zm-20.82 58.7 19.61-29.92c-2.28-.74-4.35-2.02-6.03-3.73l-9.78 17.38c-.32.57-.93.92-1.59.89-.66-.02-1.24-.41-1.52-1.01-1.55-3.3-4.07-6.06-7.24-7.87-8.5-4.9-19.37-1.97-24.26 6.54-4.89 8.5-1.96 19.37 6.54 24.26 8.51 4.89 19.37 1.96 24.27-6.54z"/><path d="m113.66 100.96c1.53 2.66 1.95 5.81 1.16 8.78-1.65 6.18-8 9.85-14.18 8.2s-9.85-8-8.2-14.18 8-9.85 14.18-8.2c2.97.79 5.51 2.73 7.04 5.4zm-2.22 7.87c1.15-4.31-1.41-8.74-5.73-9.89-.69-.18-1.4-.28-2.11-.28-3.66.01-6.85 2.47-7.8 6-1.16 4.31 1.4 8.75 5.72 9.91s8.76-1.4 9.91-5.72c.01-.01.01-.01.01-.02z"/><path d="m64 74.96c1.91 0 3.47-1.55 3.47-3.47 0-1.91-1.55-3.47-3.47-3.47s-3.47 1.56-3.47 3.47c0 1.92 1.55 3.47 3.47 3.47zm0-10.44c3.85.01 6.96 3.12 6.97 6.97 0 3.85-3.12 6.97-6.97 6.97s-6.97-3.12-6.97-6.97 3.12-6.97 6.97-6.97z"/><path d="m35.58 103.76c.79 2.97.38 6.14-1.16 8.8-3.21 5.55-10.3 7.45-15.85 4.24-5.55-3.2-7.45-10.3-4.24-15.85 3.21-5.54 10.3-7.44 15.85-4.24 2.67 1.54 4.61 4.07 5.4 7.05zm-4.19 7.04c1.07-1.86 1.36-4.06.81-6.13-1.15-4.32-5.59-6.88-9.91-5.73-2.08.55-3.85 1.91-4.93 3.78-2.23 3.87-.9 8.82 2.98 11.05 3.87 2.23 8.82.9 11.05-2.97z"/></g></g></svg>