<svg width="18" height="18" viewBox="0 0 18 18" fill="none" xmlns="http://www.w3.org/2000/svg">
<path d="M6.06779 1.63636C6.06779 1.09978 6.48655 0.707616 7.02314 0.707616H10.9504C11.4869 0.707616 11.9056 1.09978 11.9056 1.63636V2.65356H12.6132V1.63636C12.6132 0.709689 11.8771 0 10.9504 0H7.02314C6.09646 0 5.36017 0.709689 5.36017 1.63636V2.65356H6.06779V1.63636Z" fill="#EC2C2C"/>
<path d="M4.80302 18H13.1706C13.9773 18 14.6034 17.2903 14.6034 16.4078V5.48401H3.37V16.4078C3.37 17.2903 3.99607 18 4.80302 18ZM11.2422 7.17341C11.2422 6.97802 11.4007 6.8196 11.596 6.8196C11.7914 6.8196 11.9498 6.97802 11.9498 7.17341V15.5321C11.9498 15.7275 11.7914 15.8859 11.596 15.8859C11.4007 15.8859 11.2422 15.7275 11.2422 15.5321V7.17341ZM8.63289 7.17341C8.63289 6.97802 8.79131 6.8196 8.9867 6.8196C9.18209 6.8196 9.34051 6.97802 9.34051 7.17341V15.5321C9.34051 15.7275 9.18209 15.8859 8.9867 15.8859C8.79131 15.8859 8.63289 15.7275 8.63289 15.5321V7.17341ZM6.02356 7.17341C6.02356 6.97802 6.18198 6.8196 6.37737 6.8196C6.57276 6.8196 6.73117 6.97802 6.73117 7.17341V15.5321C6.73117 15.7275 6.57276 15.8859 6.37737 15.8859C6.18198 15.8859 6.02356 15.7275 6.02356 15.5321V7.17341Z" fill="#EC2C2C"/>
<path d="M3.00738 4.77643H14.966C15.4546 4.77643 15.8506 4.38047 15.8506 3.89191C15.8506 3.40335 15.4546 3.00739 14.966 3.00739H3.00738C2.51883 3.00739 2.12286 3.40335 2.12286 3.89191C2.12286 4.38047 2.51883 4.77643 3.00738 4.77643Z" fill="#EC2C2C"/>
</svg>
