<svg width="18" height="18" viewBox="0 0 18 18" fill="none" xmlns="http://www.w3.org/2000/svg">
<g clip-path="url(#clip0)">
<path d="M17.8656 8.64826C17.705 8.46904 13.8404 4.25391 9.00002 4.25391C4.15963 4.25391 0.295119 8.46904 0.13442 8.64826C-0.0448066 8.84858 -0.0448066 9.15142 0.13442 9.35174C0.295119 9.53096 4.15971 13.7461 9.00002 13.7461C13.8403 13.7461 17.7049 9.53096 17.8656 9.35174C18.0448 9.15142 18.0448 8.84858 17.8656 8.64826ZM9.00002 12.6914C6.96479 12.6914 5.30861 11.0352 5.30861 9C5.30861 6.96477 6.96479 5.30859 9.00002 5.30859C11.0352 5.30859 12.6914 6.96477 12.6914 9C12.6914 11.0352 11.0352 12.6914 9.00002 12.6914Z" fill="#666296"/>
<path d="M9.52734 7.94531C9.52734 7.4148 9.7907 6.94811 10.1913 6.66105C9.83183 6.47701 9.43084 6.36328 9 6.36328C7.54618 6.36328 6.36328 7.54618 6.36328 9C6.36328 10.4538 7.54618 11.6367 9 11.6367C10.3016 11.6367 11.379 10.6863 11.5918 9.44445C10.5299 9.78634 9.52734 8.9832 9.52734 7.94531Z" fill="#666296"/>
</g>
<defs>
<clipPath id="clip0">
<rect width="18" height="18" fill="white"/>
</clipPath>
</defs>
</svg>
