<svg width="9" height="9" viewBox="0 0 9 9" fill="none" xmlns="http://www.w3.org/2000/svg">
<path d="M4.77576 1.36631C4.98305 1.15903 5.13944 0.92842 5.21617 0.716972C5.27978 0.541648 5.27892 0.398105 5.21383 0.333031C5.18025 0.299457 5.1277 0.282898 5.06153 0.282898C4.85073 0.282898 4.50098 0.450681 4.18057 0.771095C3.97329 0.978377 3.81688 1.20897 3.74015 1.42041C3.67653 1.59574 3.67741 1.73926 3.7425 1.80436C3.88304 1.94486 4.35472 1.78736 4.77576 1.36631Z" fill="#666296"/>
<path d="M3.89392 2.10036C3.84341 2.10027 3.79311 2.09395 3.74414 2.08155V3.19921H5.25586V1.17957C5.16395 1.30766 5.06203 1.42827 4.95107 1.54027C4.59178 1.89955 4.19238 2.10036 3.89392 2.10036Z" fill="#666296"/>
<path d="M3.44531 3.44531H5.55469V5.29102H3.44531V3.44531Z" fill="#666296"/>
<path d="M3.18164 8.31234C3.18176 8.41979 3.22437 8.52282 3.30017 8.59896C3.37598 8.6751 3.47883 8.71817 3.58627 8.71875H5.41373C5.52117 8.71817 5.62402 8.6751 5.69983 8.59896C5.77563 8.52282 5.81824 8.41979 5.81836 8.31234V5.53711H3.18164V8.31234ZM3.56836 6.28492C3.56836 6.25228 3.58132 6.22099 3.6044 6.19791C3.62747 6.17483 3.65877 6.16187 3.69141 6.16187C3.72404 6.16187 3.75534 6.17483 3.77841 6.19791C3.80149 6.22099 3.81445 6.25228 3.81445 6.28492V8.00914C3.81445 8.04177 3.80149 8.07307 3.77841 8.09615C3.75534 8.11922 3.72404 8.13219 3.69141 8.13219C3.65877 8.13219 3.62747 8.11922 3.6044 8.09615C3.58132 8.07307 3.56836 8.04177 3.56836 8.00914V6.28492Z" fill="#666296"/>
</svg>
