<svg width="128" height="128" viewBox="0 0 128 128" fill="none" xmlns="http://www.w3.org/2000/svg">
<path d="M64 128C55.3625 128 46.975 126.312 39.0875 122.975C31.4625 119.75 24.625 115.125 18.75 109.25C12.875 103.375 8.25 96.5375 5.025 88.9125C1.6875 81.025 0 72.6375 0 64C0 61.5125 2.0125 59.5 4.5 59.5C6.9875 59.5 9 61.5125 9 64C9 71.425 10.45 78.625 13.325 85.4125C16.1 91.9625 20.0625 97.85 25.1125 102.9C30.1625 107.95 36.05 111.925 42.6 114.688C49.375 117.55 56.575 119 64 119C71.425 119 78.625 117.55 85.4125 114.675C91.9625 111.9 97.85 107.938 102.9 102.887C107.95 97.8375 111.925 91.95 114.688 85.4C117.55 78.625 119 71.425 119 64C119 56.575 117.55 49.375 114.675 42.5875C111.909 36.0532 107.907 30.1151 102.887 25.1C97.8779 20.074 91.9384 16.0704 85.4 13.3125C78.625 10.45 71.425 9 64 9C61.5125 9 59.5 6.9875 59.5 4.5C59.5 2.0125 61.5125 0 64 0C72.6375 0 81.025 1.6875 88.9125 5.025C96.5375 8.25 103.375 12.875 109.25 18.75C115.125 24.625 119.738 31.475 122.963 39.0875C126.3 46.975 127.988 55.3625 127.988 64C127.988 72.6375 126.3 81.025 122.963 88.9125C119.75 96.5375 115.125 103.375 109.25 109.25C103.375 115.125 96.525 119.738 88.9125 122.963C81.025 126.312 72.6375 128 64 128Z" fill="#333333"/>
</svg>
