<svg width="27" height="27" viewBox="0 0 27 27" fill="none" xmlns="http://www.w3.org/2000/svg">
<g clip-path="url(#clip0)">
<path d="M19.0898 20.6719V22.7812C19.0898 25.1075 17.1974 27 14.8711 27H4.27148C1.9452 27 0.0527344 25.1075 0.0527344 22.7812V4.21875C0.0527344 1.89246 1.9452 0 4.27148 0H14.8711C17.1974 0 19.0898 1.89246 19.0898 4.21875V6.32812C19.0898 6.91068 18.6177 7.38281 18.0352 7.38281C17.4526 7.38281 16.9805 6.91068 16.9805 6.32812V4.21875C16.9805 3.05571 16.0341 2.10938 14.8711 2.10938H4.27148C3.10844 2.10938 2.16211 3.05571 2.16211 4.21875V22.7812C2.16211 23.9443 3.10844 24.8906 4.27148 24.8906H14.8711C16.0341 24.8906 16.9805 23.9443 16.9805 22.7812V20.6719C16.9805 20.0893 17.4526 19.6172 18.0352 19.6172C18.6177 19.6172 19.0898 20.0893 19.0898 20.6719ZM26.2805 11.6883L23.9187 9.32657C23.5068 8.91458 22.8389 8.91458 22.4271 9.32657C22.0152 9.73835 22.0152 10.4062 22.4271 10.818L24.107 12.498H11.4434C10.8608 12.498 10.3887 12.9702 10.3887 13.5527C10.3887 14.1353 10.8608 14.6074 11.4434 14.6074H24.107L22.4271 16.2875C22.0152 16.6993 22.0152 17.3671 22.4271 17.7789C22.6331 17.9849 22.903 18.0879 23.1728 18.0879C23.4429 18.0879 23.7128 17.9849 23.9187 17.7789L26.2805 15.4172C27.3086 14.3891 27.3086 12.7164 26.2805 11.6883Z" fill="#F9F9F9"/>
</g>
<defs>
<clipPath id="clip0">
<rect width="27" height="27" fill="white"/>
</clipPath>
</defs>
</svg>
