<svg width="9" height="9" viewBox="0 0 9 9" fill="none" xmlns="http://www.w3.org/2000/svg">
<path d="M4.5 0C2.01873 0 0 2.01873 0 4.5C0 6.98127 2.01873 9 4.5 9C5.29129 9 6.06939 8.79181 6.75055 8.39768L6.1875 7.42373C5.67719 7.71899 5.09353 7.875 4.5 7.875C2.63892 7.875 1.125 6.36108 1.125 4.5C1.125 2.63892 2.63892 1.125 4.5 1.125C6.36108 1.125 7.875 2.63892 7.875 4.5V4.98999C7.875 5.35804 7.63853 5.62499 7.3125 5.62499C7.0024 5.62499 6.74999 5.37258 6.74999 5.06249V2.8125H5.97241C5.5767 2.4668 5.06546 2.24999 4.5 2.24999C3.25937 2.24999 2.24999 3.25937 2.24999 4.5C2.24999 5.74063 3.25937 6.75001 4.5 6.75001C5.09079 6.75001 5.62494 6.51638 6.02683 6.14261C6.33662 6.51075 6.79481 6.75001 7.3125 6.75001C8.2587 6.75001 9 5.97686 9 4.98999V4.5C9 2.01873 6.98127 0 4.5 0V0ZM4.5 5.62499C3.87954 5.62499 3.375 5.12044 3.375 4.5C3.375 3.87954 3.87956 3.375 4.5 3.375C5.12046 3.375 5.62499 3.87956 5.62499 4.5C5.62499 5.12046 5.12046 5.62499 4.5 5.62499Z" fill="#666296"/>
</svg>
