<svg width="9" height="9" viewBox="0 0 9 9" fill="none" xmlns="http://www.w3.org/2000/svg">
<g clip-path="url(#clip0)">
<path d="M8.27784 5.90747C7.72683 5.90747 7.1858 5.82129 6.6731 5.65186C6.42188 5.56617 6.11304 5.64478 5.95971 5.80226L4.94775 6.56618C3.77416 5.93972 3.05126 5.21705 2.43335 4.05227L3.1748 3.06668C3.36743 2.8743 3.43652 2.59329 3.35374 2.32962C3.18359 1.81423 3.09715 1.27345 3.09715 0.722203C3.09717 0.323977 2.7732 0 2.37499 0H0.72218C0.323977 0 0 0.323977 0 0.72218C0 5.28663 3.71339 9 8.27784 9C8.67605 9 9.00002 8.67602 9.00002 8.27782V6.62963C9 6.23145 8.67602 5.90747 8.27784 5.90747Z" fill="#666296"/>
</g>
<defs>
<clipPath id="clip0">
<rect width="9" height="9" fill="white"/>
</clipPath>
</defs>
</svg>
