<svg width="27" height="27" viewBox="0 0 27 27" fill="none" xmlns="http://www.w3.org/2000/svg">
<g clip-path="url(#clip0)">
<path d="M14.3472 27H12.6527C11.2822 27 10.1671 25.885 10.1671 24.5145V23.9412C9.58447 23.755 9.01837 23.5201 8.47452 23.2386L8.06825 23.6449C7.08428 24.6301 5.50811 24.6012 4.55272 23.6445L3.35507 22.4469C2.39799 21.4909 2.37046 19.9152 3.35538 18.9314L3.76133 18.5254C3.47989 17.9816 3.24496 17.4156 3.05875 16.8328H2.48553C1.11507 16.8328 0 15.7178 0 14.3473V12.6527C0 11.2822 1.11507 10.1672 2.48558 10.1672H3.0588C3.24501 9.58447 3.47994 9.01842 3.76138 8.47457L3.35512 8.06836C2.37078 7.08507 2.39794 5.50927 3.35544 4.55282L4.55319 3.35512C5.5108 2.3962 7.0866 2.37226 8.06868 3.35544L8.47457 3.76133C9.01842 3.47994 9.58453 3.24496 10.1672 3.05875V2.48553C10.1672 1.11502 11.2822 0 12.6528 0H14.3473C15.7178 0 16.8328 1.11502 16.8328 2.48553V3.0588C17.4155 3.24496 17.9816 3.47994 18.5254 3.76138L18.9317 3.35512C19.9157 2.36994 21.4918 2.39883 22.4472 3.35549L23.6449 4.55309C24.602 5.50911 24.6295 7.08476 23.6446 8.06862L23.2386 8.47457C23.5201 9.01842 23.755 9.58442 23.9412 10.1672H24.5144C25.8849 10.1672 27 11.2822 27 12.6527V14.3473C27 15.7178 25.8849 16.8328 24.5144 16.8328H23.9412C23.755 17.4155 23.5201 17.9816 23.2386 18.5254L23.6449 18.9317C24.6292 19.915 24.6021 21.4908 23.6446 22.4472L22.4468 23.6449C21.4892 24.6039 19.9134 24.6278 18.9313 23.6446L18.5254 23.2387C17.9816 23.5201 17.4155 23.7551 16.8328 23.9413V24.5146C16.8328 25.885 15.7178 27 14.3472 27ZM8.73898 21.5773C9.49451 22.0241 10.3077 22.3617 11.1559 22.5806C11.5052 22.6707 11.7492 22.9858 11.7492 23.3465V24.5145C11.7492 25.0127 12.1546 25.418 12.6528 25.418H14.3473C14.8455 25.418 15.2508 25.0127 15.2508 24.5145V23.3465C15.2508 22.9858 15.4949 22.6707 15.8442 22.5806C16.6924 22.3617 17.5055 22.0241 18.2611 21.5773C18.5719 21.3935 18.9677 21.4435 19.2231 21.6989L20.0504 22.5262C20.4071 22.8833 20.9799 22.8751 21.3278 22.5266L22.5263 21.3282C22.8734 20.9815 22.885 20.4086 22.5266 20.0507L21.699 19.223C21.4436 18.9677 21.3937 18.5718 21.5774 18.261C22.0242 17.5055 22.3617 16.6924 22.5806 15.8441C22.6708 15.4948 22.9859 15.2508 23.3466 15.2508H24.5145C25.0127 15.2508 25.418 14.8455 25.418 14.3473V12.6528C25.418 12.1546 25.0127 11.7493 24.5145 11.7493H23.3466C22.9858 11.7493 22.6708 11.5052 22.5806 11.156C22.3617 10.3077 22.0242 9.49456 21.5774 8.73909C21.3937 8.42827 21.4436 8.03245 21.699 7.77711L22.5263 6.94976C22.884 6.59254 22.8746 6.01984 22.5266 5.67227L21.3283 4.47388C20.9809 4.12604 20.408 4.11587 20.0508 4.47356L19.2232 5.30123C18.9678 5.55662 18.5719 5.60661 18.2611 5.42278C17.5056 4.97596 16.6924 4.63841 15.8443 4.41951C15.4949 4.32939 15.2509 4.01435 15.2509 3.6536V2.48553C15.2509 1.98735 14.8455 1.58203 14.3473 1.58203H12.6528C12.1546 1.58203 11.7493 1.98735 11.7493 2.48553V3.65349C11.7493 4.01425 11.5052 4.32928 11.1559 4.4194C10.3077 4.6383 9.49456 4.97586 8.73904 5.42268C8.42811 5.60646 8.03234 5.55646 7.777 5.30112L6.94971 4.47377C6.59301 4.11666 6.02016 4.12494 5.67227 4.4734L4.47377 5.67185C4.12668 6.01852 4.11507 6.59137 4.47346 6.94934L5.30112 7.777C5.55646 8.03234 5.60646 8.42817 5.42268 8.73898C4.97586 9.49445 4.63836 10.3076 4.41946 11.1559C4.32928 11.5052 4.01425 11.7492 3.65354 11.7492H2.48558C1.9874 11.7492 1.58203 12.1545 1.58203 12.6527V14.3473C1.58203 14.8455 1.9874 15.2508 2.48558 15.2508H3.65349C4.01425 15.2508 4.32923 15.4948 4.4194 15.8441C4.6383 16.6923 4.97586 17.5055 5.42262 18.261C5.6064 18.5718 5.55641 18.9676 5.30107 19.2229L4.47372 20.0503C4.11608 20.4075 4.12541 20.9802 4.4734 21.3278L5.67179 22.5262C6.01915 22.874 6.59206 22.8842 6.94928 22.5265L7.7769 21.6988C7.96505 21.5107 8.3565 21.3511 8.73898 21.5773Z" fill="#F9F9F9"/>
<path d="M13.5 19.3746C10.2607 19.3746 7.62537 16.7393 7.62537 13.5C7.62537 10.2608 10.2607 7.62543 13.5 7.62543C16.7393 7.62543 19.3746 10.2608 19.3746 13.5C19.3746 16.7393 16.7393 19.3746 13.5 19.3746ZM13.5 9.20746C11.133 9.20746 9.2074 11.1331 9.2074 13.5C9.2074 15.867 11.133 17.7926 13.5 17.7926C15.8669 17.7926 17.7926 15.867 17.7926 13.5C17.7926 11.1331 15.867 9.20746 13.5 9.20746Z" fill="#F9F9F9"/>
</g>
<defs>
<clipPath id="clip0">
<rect width="27" height="27" fill="white"/>
</clipPath>
</defs>
</svg>
