<svg width="14" height="12" viewBox="0 0 14 12" fill="none" xmlns="http://www.w3.org/2000/svg">
<path d="M2.50279 0.79C2.90679 0.79 3.22679 0.908 3.46279 1.144C3.70279 1.376 3.82279 1.718 3.82279 2.17V4H3.24679V2.236C3.24679 1.928 3.17279 1.696 3.02479 1.54C2.87679 1.384 2.66479 1.306 2.38879 1.306C2.07679 1.306 1.83079 1.398 1.65079 1.582C1.47079 1.762 1.38079 2.022 1.38079 2.362V4H0.804789V0.82H1.35679V1.3C1.47279 1.136 1.62879 1.01 1.82479 0.922C2.02479 0.834 2.25079 0.79 2.50279 0.79ZM7.78035 2.428C7.78035 2.472 7.77635 2.53 7.76835 2.602H5.18835C5.22435 2.882 5.34635 3.108 5.55435 3.28C5.76635 3.448 6.02835 3.532 6.34035 3.532C6.72035 3.532 7.02635 3.404 7.25835 3.148L7.57635 3.52C7.43235 3.688 7.25235 3.816 7.03635 3.904C6.82435 3.992 6.58635 4.036 6.32235 4.036C5.98635 4.036 5.68835 3.968 5.42835 3.832C5.16835 3.692 4.96635 3.498 4.82235 3.25C4.68235 3.002 4.61235 2.722 4.61235 2.41C4.61235 2.102 4.68035 1.824 4.81635 1.576C4.95635 1.328 5.14635 1.136 5.38635 1C5.63035 0.86 5.90435 0.79 6.20835 0.79C6.51235 0.79 6.78235 0.86 7.01835 1C7.25835 1.136 7.44435 1.328 7.57635 1.576C7.71235 1.824 7.78035 2.108 7.78035 2.428ZM6.20835 1.276C5.93235 1.276 5.70035 1.36 5.51235 1.528C5.32835 1.696 5.22035 1.916 5.18835 2.188H7.22835C7.19635 1.92 7.08635 1.702 6.89835 1.534C6.71435 1.362 6.48435 1.276 6.20835 1.276ZM10.5203 4L9.60229 2.782L8.67229 4H8.03029L9.28429 2.374L8.09029 0.82H8.73229L9.60829 1.966L10.4783 0.82H11.1083L9.90829 2.374L11.1743 4H10.5203ZM13.5908 3.814C13.5068 3.886 13.4028 3.942 13.2788 3.982C13.1548 4.018 13.0268 4.036 12.8948 4.036C12.5748 4.036 12.3268 3.95 12.1508 3.778C11.9748 3.606 11.8868 3.36 11.8868 3.04V1.294H11.3468V0.82H11.8868V0.124H12.4628V0.82H13.3748V1.294H12.4628V3.016C12.4628 3.188 12.5048 3.32 12.5888 3.412C12.6768 3.504 12.8008 3.55 12.9608 3.55C13.1368 3.55 13.2868 3.5 13.4108 3.4L13.5908 3.814ZM4.26332 7.82L2.87132 11H2.28332L0.89132 7.82H1.49132L2.58332 10.37L3.69932 7.82H4.26332ZM4.80088 7.82H5.37688V11H4.80088V7.82ZM5.08888 7.208C4.97688 7.208 4.88288 7.172 4.80688 7.1C4.73488 7.028 4.69888 6.94 4.69888 6.836C4.69888 6.732 4.73488 6.644 4.80688 6.572C4.88288 6.496 4.97688 6.458 5.08888 6.458C5.20088 6.458 5.29288 6.494 5.36488 6.566C5.44088 6.634 5.47888 6.72 5.47888 6.824C5.47888 6.932 5.44088 7.024 5.36488 7.1C5.29288 7.172 5.20088 7.208 5.08888 7.208ZM7.38866 11.036C7.12866 11.036 6.87866 11.002 6.63866 10.934C6.39866 10.862 6.21066 10.772 6.07466 10.664L6.31466 10.208C6.45466 10.308 6.62466 10.388 6.82466 10.448C7.02466 10.508 7.22666 10.538 7.43066 10.538C7.93466 10.538 8.18666 10.394 8.18666 10.106C8.18666 10.01 8.15266 9.934 8.08466 9.878C8.01666 9.822 7.93066 9.782 7.82666 9.758C7.72666 9.73 7.58266 9.7 7.39466 9.668C7.13866 9.628 6.92866 9.582 6.76466 9.53C6.60466 9.478 6.46666 9.39 6.35066 9.266C6.23466 9.142 6.17666 8.968 6.17666 8.744C6.17666 8.456 6.29666 8.226 6.53666 8.054C6.77666 7.878 7.09866 7.79 7.50266 7.79C7.71466 7.79 7.92666 7.816 8.13866 7.868C8.35066 7.92 8.52466 7.99 8.66066 8.078L8.41466 8.534C8.15466 8.366 7.84866 8.282 7.49666 8.282C7.25266 8.282 7.06666 8.322 6.93866 8.402C6.81066 8.482 6.74666 8.588 6.74666 8.72C6.74666 8.824 6.78266 8.906 6.85466 8.966C6.92666 9.026 7.01466 9.07 7.11866 9.098C7.22666 9.126 7.37666 9.158 7.56866 9.194C7.82466 9.238 8.03066 9.286 8.18666 9.338C8.34666 9.386 8.48266 9.47 8.59466 9.59C8.70666 9.71 8.76266 9.878 8.76266 10.094C8.76266 10.382 8.63866 10.612 8.39066 10.784C8.14666 10.952 7.81266 11.036 7.38866 11.036ZM9.48252 7.82H10.0585V11H9.48252V7.82ZM9.77052 7.208C9.65852 7.208 9.56452 7.172 9.48852 7.1C9.41652 7.028 9.38052 6.94 9.38052 6.836C9.38052 6.732 9.41652 6.644 9.48852 6.572C9.56452 6.496 9.65852 6.458 9.77052 6.458C9.88252 6.458 9.97452 6.494 10.0465 6.566C10.1225 6.634 10.1605 6.72 10.1605 6.824C10.1605 6.932 10.1225 7.024 10.0465 7.1C9.97452 7.172 9.88252 7.208 9.77052 7.208ZM12.9463 10.814C12.8623 10.886 12.7583 10.942 12.6343 10.982C12.5103 11.018 12.3823 11.036 12.2503 11.036C11.9303 11.036 11.6823 10.95 11.5063 10.778C11.3303 10.606 11.2423 10.36 11.2423 10.04V8.294H10.7023V7.82H11.2423V7.124H11.8183V7.82H12.7303V8.294H11.8183V10.016C11.8183 10.188 11.8603 10.32 11.9443 10.412C12.0323 10.504 12.1563 10.55 12.3163 10.55C12.4923 10.55 12.6423 10.5 12.7663 10.4L12.9463 10.814Z" fill="#666296"/>
</svg>
